<?xml version="1.0" standalone="no"?>
<!DOCTYPE svg PUBLIC "-//W3C//DTD SVG 20010904//EN"
 "http://www.w3.org/TR/2001/REC-SVG-20010904/DTD/svg10.dtd">
<svg version="1.0" xmlns="http://www.w3.org/2000/svg"
 width="1152.000000pt" height="1152.000000pt" viewBox="0 0 1152.000000 1152.000000"
 preserveAspectRatio="xMidYMid meet">
<metadata>
Created by potrace 1.14, written by Peter Selinger 2001-2017
</metadata>
<g transform="translate(0.000000,1152.000000) scale(0.100000,-0.100000)"
fill="#000000" stroke="none">
<path d="M8969 10236 c-2 -2 -49 -7 -104 -10 -55 -3 -111 -8 -124 -11 -12 -2
-42 -7 -65 -10 -94 -12 -121 -16 -160 -25 -22 -5 -54 -11 -71 -14 -16 -3 -41
-8 -55 -12 -14 -3 -36 -7 -50 -9 -14 -2 -32 -6 -40 -8 -8 -2 -28 -7 -45 -11
-16 -4 -37 -10 -45 -13 -8 -3 -21 -7 -29 -9 -49 -10 -118 -28 -126 -33 -5 -3
-14 -6 -20 -7 -45 -9 -271 -80 -332 -106 -16 -6 -32 -12 -38 -12 -5 -1 -27 -9
-49 -19 -21 -9 -40 -17 -42 -17 -6 0 -184 -70 -229 -90 -22 -10 -67 -30 -100
-45 -71 -32 -108 -48 -115 -50 -24 -7 -227 -111 -232 -119 -4 -6 -8 -7 -8 -3
0 4 -24 -6 -52 -22 -29 -16 -73 -39 -98 -52 -25 -13 -47 -25 -50 -28 -3 -4
-21 -14 -40 -23 -49 -24 -164 -90 -170 -97 -3 -3 -18 -13 -35 -21 -16 -8 -56
-31 -87 -52 -31 -21 -61 -38 -67 -38 -5 0 -11 -3 -13 -7 -1 -5 -46 -37 -98
-72 -52 -36 -101 -71 -108 -78 -7 -7 -16 -13 -20 -13 -4 0 -23 -15 -43 -33
-20 -17 -55 -47 -77 -65 -37 -30 -214 -204 -237 -234 -6 -7 -30 -38 -53 -68
-23 -30 -47 -60 -52 -67 -6 -7 -10 -17 -10 -23 0 -5 -4 -10 -10 -10 -5 0 -10
-5 -10 -11 0 -6 -16 -37 -35 -70 -19 -32 -33 -59 -31 -59 2 0 -5 -24 -17 -52
-19 -47 -21 -75 -23 -261 -2 -211 2 -249 36 -323 37 -81 171 -165 302 -189 25
-5 54 -12 91 -20 32 -8 134 -15 271 -18 l120 -2 -1 -302 0 -302 -111 -113
c-61 -62 -121 -124 -133 -138 -36 -42 -80 -110 -72 -110 4 0 3 -4 -3 -8 -9 -6
-53 -111 -54 -127 0 -3 0 -6 -1 -7 -1 -4 -6 -45 -14 -113 -6 -55 -9 -143 -5
-155 4 -12 8 -38 13 -83 6 -46 54 -169 69 -175 4 -2 8 -10 8 -18 0 -8 4 -14 8
-14 4 0 15 -13 25 -29 27 -46 147 -164 212 -208 l60 -40 0 -1729 c0 -951 4
-1742 8 -1759 8 -33 19 -83 23 -102 1 -7 20 -51 43 -97 68 -140 154 -211 301
-247 63 -15 372 -19 460 -5 30 4 61 8 68 9 6 0 12 3 12 7 0 3 8 6 18 7 10 1
48 14 86 29 112 45 215 161 271 307 19 51 25 158 12 231 -9 47 -69 177 -91
195 -9 8 -16 17 -16 21 0 8 -22 35 -89 111 l-33 39 2 817 c1 929 3 1103 10
1103 3 0 5 28 5 63 -1 34 1 66 3 70 2 5 5 32 7 61 1 29 5 70 8 92 4 21 9 62
12 89 3 28 8 57 10 65 2 8 6 35 10 60 3 25 7 52 9 60 1 8 6 32 10 52 10 45 25
59 70 65 51 7 121 -36 252 -152 13 -11 99 -85 130 -112 27 -23 151 -132 180
-158 31 -28 181 -165 218 -198 208 -190 569 -551 737 -738 30 -33 117 -132
144 -163 11 -12 35 -39 53 -59 17 -20 32 -39 32 -41 0 -3 10 -16 23 -29 12
-13 29 -32 37 -43 8 -10 31 -39 50 -64 19 -25 43 -54 52 -64 10 -11 18 -23 18
-27 0 -5 8 -16 18 -26 10 -10 40 -49 67 -88 27 -38 51 -72 54 -75 3 -3 11 -13
16 -22 6 -9 36 -55 68 -102 31 -47 57 -90 57 -95 0 -6 4 -11 8 -11 5 0 15 -12
22 -27 8 -16 22 -37 31 -48 10 -11 17 -22 17 -25 -1 -3 11 -25 26 -48 45 -71
196 -368 191 -374 -3 -3 1 -11 10 -18 8 -7 15 -19 15 -26 0 -8 4 -22 10 -32
13 -24 59 -136 81 -199 9 -29 24 -67 32 -85 8 -18 27 -64 42 -103 40 -99 155
-325 166 -325 5 0 9 -5 9 -12 0 -18 109 -158 165 -212 27 -27 68 -60 90 -75
22 -14 42 -28 45 -31 3 -4 26 -16 53 -28 77 -36 162 -51 261 -48 147 6 219 48
309 181 59 86 109 216 132 343 3 15 7 38 10 52 17 76 23 275 12 395 -6 70 -9
88 -27 180 -16 80 -18 86 -40 160 -12 39 -23 78 -25 87 -2 9 -24 68 -50 130
-25 62 -47 118 -49 123 -3 11 -92 191 -106 215 -45 76 -120 213 -120 221 0 5
-4 9 -9 9 -5 0 -15 12 -22 27 -19 38 -72 117 -81 121 -5 2 -8 8 -8 13 0 5 -20
37 -45 72 -24 34 -66 93 -92 130 -27 37 -63 84 -80 105 -18 20 -33 40 -33 44
0 4 -6 13 -13 20 -7 7 -51 60 -97 117 -47 58 -96 117 -110 131 -14 14 -49 54
-79 88 -29 34 -73 82 -96 107 -24 25 -42 45 -39 45 9 0 -670 674 -770 765 -55
50 -110 99 -122 110 -12 11 -59 54 -105 95 -45 41 -95 86 -110 100 -15 14 -38
34 -51 44 -33 27 -152 130 -158 136 -7 7 -120 102 -144 120 -10 8 -35 29 -55
45 -20 17 -58 48 -86 70 -27 22 -56 45 -63 52 -7 7 -16 13 -20 13 -4 0 -23 14
-42 30 -19 16 -39 33 -45 37 -5 5 -30 24 -55 43 -167 128 -341 299 -386 379
-52 90 -37 115 109 185 61 30 148 69 192 87 44 18 89 38 101 46 11 7 24 10 27
6 4 -3 7 -1 7 6 0 7 4 10 9 6 5 -3 16 2 24 10 9 8 20 15 26 15 25 0 530 257
718 365 52 30 99 55 104 55 5 0 9 4 9 9 0 5 12 14 28 20 15 6 62 33 105 61 43
27 83 50 88 50 5 0 9 5 9 10 0 6 5 10 10 10 9 0 65 35 80 50 7 7 43 29 60 37
8 4 17 9 20 12 13 16 80 61 89 61 6 0 11 3 11 8 1 4 23 23 51 42 70 49 151
111 217 167 67 56 232 217 232 226 0 3 10 17 23 29 94 99 300 384 379 528 14
25 34 61 45 80 32 59 100 221 123 295 12 39 24 77 27 85 3 8 7 29 10 45 3 28
10 64 13 75 7 26 -3 220 -16 295 -24 139 -100 277 -219 395 -125 124 -215 173
-487 265 -54 18 -98 32 -98 30 0 -2 -17 2 -38 9 -57 20 -323 79 -329 72 -3 -3
-13 -1 -23 4 -17 9 -66 17 -166 25 -34 3 -72 8 -85 11 -27 6 -524 15 -530 10z
m421 -1150 c243 -10 313 -25 340 -69 10 -16 17 -43 15 -60 -3 -42 -34 -118
-57 -140 -10 -10 -18 -21 -18 -26 0 -11 -132 -145 -190 -193 -25 -21 -52 -44
-60 -51 -128 -118 -719 -497 -975 -625 -16 -8 -42 -23 -57 -34 -14 -10 -33
-18 -42 -18 -9 0 -16 -4 -16 -8 0 -4 -15 -15 -32 -23 -18 -8 -78 -39 -133 -69
-343 -185 -663 -345 -671 -337 -9 9 -14 1012 -5 1024 3 4 44 36 91 71 47 34
90 66 95 70 6 4 39 26 75 50 36 23 70 46 77 52 7 5 15 10 18 10 3 0 24 12 48
27 60 38 312 163 329 163 7 0 22 6 33 14 11 7 58 25 105 40 47 15 92 31 101
36 9 5 34 12 55 16 47 10 45 9 64 17 17 7 143 34 192 42 87 14 108 16 183 21
44 3 80 6 81 7 4 3 211 -1 354 -7z"/>
<path d="M3349 8975 c-78 -21 -155 -61 -269 -140 -60 -42 -115 -82 -123 -89
-7 -7 -23 -17 -35 -20 -12 -4 -22 -11 -22 -16 0 -5 -8 -11 -18 -14 -10 -4 -27
-14 -38 -24 -10 -9 -60 -44 -109 -77 -50 -33 -91 -63 -93 -67 -2 -5 -9 -8 -16
-8 -8 0 -25 -9 -39 -21 -28 -21 -354 -219 -362 -219 -3 0 -41 -20 -86 -45 -45
-25 -87 -45 -94 -45 -8 0 -15 -4 -17 -9 -1 -4 -57 -34 -123 -66 -311 -149
-551 -269 -557 -279 -4 -6 -8 -8 -8 -4 0 7 -119 -52 -144 -70 -6 -5 -27 -15
-46 -22 -19 -8 -37 -17 -40 -20 -3 -3 -32 -19 -65 -35 -33 -17 -62 -32 -65
-35 -3 -3 -47 -27 -98 -54 -147 -75 -157 -81 -162 -86 -6 -6 -14 -11 -115 -65
-38 -20 -88 -48 -110 -62 -45 -27 -142 -85 -195 -115 -142 -82 -232 -153 -256
-204 -80 -169 -45 -374 86 -504 117 -115 261 -151 419 -104 40 13 78 27 84 33
6 6 19 11 29 11 10 0 18 5 18 10 0 6 6 10 13 10 11 0 159 92 183 115 14 13
323 240 381 280 24 17 117 80 206 140 89 61 164 113 165 118 2 4 8 7 14 7 5 0
29 14 53 30 24 17 47 30 51 30 4 0 15 6 23 14 22 20 211 119 211 110 0 -3 6
-2 13 4 22 19 121 41 165 38 26 -2 48 -10 56 -21 20 -27 8 -176 -15 -191 -5
-3 -7 -9 -4 -14 3 -4 -13 -41 -34 -82 -22 -40 -52 -98 -68 -128 -15 -30 -31
-57 -34 -60 -3 -3 -20 -32 -38 -65 -18 -33 -36 -64 -41 -70 -4 -5 -19 -30 -32
-55 -34 -61 -139 -240 -226 -384 -40 -65 -72 -123 -72 -127 0 -5 -5 -9 -11 -9
-5 0 -8 -4 -5 -9 4 -5 3 -11 -2 -13 -4 -1 -34 -48 -66 -103 -33 -55 -63 -101
-68 -103 -4 -2 -8 -8 -8 -14 0 -6 -13 -30 -30 -55 -16 -24 -30 -48 -30 -54 0
-5 -4 -9 -9 -9 -5 0 -12 -11 -15 -25 -4 -14 -11 -25 -16 -25 -6 0 -10 -7 -10
-15 0 -8 -4 -15 -10 -15 -5 0 -10 -5 -10 -11 0 -13 -102 -170 -126 -194 -9 -8
-12 -15 -7 -15 4 0 1 -6 -7 -13 -15 -12 -20 -21 -84 -136 -44 -80 -81 -177
-96 -253 -17 -86 -19 -236 -4 -294 24 -94 99 -202 174 -248 44 -27 107 -49
119 -41 5 3 12 1 15 -4 6 -8 171 -6 215 3 130 28 248 84 415 195 38 25 79 53
92 61 13 8 69 47 126 85 56 39 107 72 113 75 22 11 100 65 107 75 4 5 8 6 8 2
0 -8 7 -4 65 33 56 35 345 180 360 180 8 0 15 4 15 8 0 9 69 33 81 29 3 -1 12
3 20 9 22 17 229 78 339 100 14 2 86 6 160 9 118 3 146 1 224 -20 218 -57 349
-176 400 -365 27 -98 38 -204 38 -355 -1 -130 -13 -302 -27 -386 -3 -14 -7
-41 -10 -60 -5 -41 -13 -79 -26 -139 -6 -25 -12 -54 -15 -65 -2 -11 -13 -49
-25 -85 -12 -36 -22 -69 -24 -75 -3 -16 -15 -46 -37 -95 -11 -25 -21 -49 -22
-55 -2 -11 -75 -152 -104 -200 -36 -62 -73 -116 -113 -167 -22 -29 -53 -70
-67 -90 -15 -21 -33 -37 -39 -38 -7 0 -13 -5 -13 -10 0 -16 -172 -183 -258
-252 -109 -86 -240 -165 -367 -219 -33 -14 -79 -32 -90 -35 -5 -1 -35 -11 -65
-23 -58 -21 -256 -74 -325 -86 -81 -14 -245 -28 -342 -29 -40 -1 -73 -5 -73
-9 0 -5 -5 -5 -11 -2 -17 11 -59 13 -65 3 -3 -4 -10 -5 -16 -2 -6 4 -52 8
-102 10 -89 2 -200 10 -261 18 -94 12 -151 20 -155 21 -3 1 -30 5 -60 10 -55
9 -64 10 -77 15 -5 1 -12 3 -18 4 -49 9 -95 19 -120 27 -102 30 -190 61 -202
70 -7 6 -13 8 -13 5 0 -4 -35 12 -77 35 -153 82 -278 146 -303 154 -14 4 -27
8 -30 9 -15 6 -99 29 -125 34 -62 12 -184 5 -232 -13 -44 -17 -123 -69 -131
-88 -2 -4 -9 -13 -16 -20 -6 -6 -22 -32 -35 -57 -23 -45 -32 -141 -19 -200 10
-40 40 -125 47 -130 3 -3 14 -22 24 -43 46 -100 261 -342 370 -416 43 -29 200
-108 231 -116 39 -10 56 -19 56 -28 0 -6 3 -8 6 -4 3 3 29 -3 58 -15 44 -17
192 -66 291 -97 17 -5 55 -15 85 -21 30 -7 66 -16 80 -21 14 -4 42 -11 64 -14
21 -3 41 -7 45 -9 3 -2 30 -7 60 -11 30 -4 63 -9 75 -11 37 -8 145 -21 246
-30 95 -9 481 -8 580 1 47 4 103 9 125 10 22 2 40 4 40 5 0 3 40 9 95 14 30 3
66 8 80 11 13 2 40 7 60 10 20 3 47 8 60 10 14 3 36 7 50 10 43 8 74 14 100
20 14 3 36 8 50 11 14 3 34 7 46 9 71 15 199 66 334 133 85 42 157 79 160 82
3 3 50 32 105 63 55 32 109 63 120 70 51 31 291 191 295 196 3 3 41 33 84 65
87 65 94 70 210 171 99 86 296 283 347 347 20 26 39 44 43 41 3 -4 6 1 6 10 0
9 5 17 10 17 6 0 10 7 10 15 0 8 4 15 8 15 5 0 23 20 41 45 17 24 37 50 44 57
23 24 147 216 147 227 0 6 3 11 8 11 4 0 18 21 31 48 14 26 33 59 43 74 10 14
18 33 18 42 0 9 4 16 8 16 6 0 23 32 37 70 1 3 13 30 27 60 24 50 105 264 114
300 2 8 17 67 34 130 17 63 33 131 36 150 2 19 7 43 10 52 11 35 27 136 28
171 1 15 3 27 6 27 3 0 6 8 7 18 0 9 3 42 7 72 24 228 25 654 2 790 -3 14 -7
43 -10 65 -11 75 -17 104 -37 172 -11 38 -21 73 -23 78 -1 6 -10 27 -19 49 -9
21 -17 40 -17 42 0 7 -78 160 -98 194 -12 19 -25 42 -29 50 -3 8 -9 17 -12 20
-4 3 -26 32 -51 65 -64 87 -145 169 -227 231 -74 56 -232 144 -258 144 -8 0
-15 5 -15 10 0 6 -3 9 -7 8 -5 -1 -37 8 -73 19 -71 24 -165 49 -220 58 -19 3
-47 8 -61 10 -65 11 -119 17 -194 20 -44 2 -80 5 -80 5 0 1 -62 3 -138 4 -75
0 -137 -1 -137 -4 0 -3 -44 -5 -98 -6 -121 -1 -332 -20 -442 -38 -14 -3 -41
-7 -60 -10 -19 -3 -48 -8 -64 -11 -63 -12 -69 -10 -61 23 3 15 22 59 41 99 19
40 34 75 34 77 0 8 140 247 186 318 24 37 44 70 44 73 0 3 4 11 10 18 5 7 95
140 200 297 105 157 247 368 316 470 181 267 245 390 260 496 11 82 11 94 5
94 -3 0 -7 17 -8 38 -6 121 -107 286 -243 397 -28 23 -112 64 -144 71 -84 18
-120 22 -200 22 -50 0 -112 -6 -137 -13z"/>
</g>
</svg>
