<svg id="advantage-briefcase" width="48" height="48" viewBox="0 0 48 48" fill="none" xmlns="http://www.w3.org/2000/svg">
<g id="Group 638">
<path id="Vector" d="M28 26V28C28 28.02 28 28.02 28 28.04C28 30.22 27.98 32 24 32C20.04 32 20 30.24 20 28.06V26C20 24 20 24 22 24H26C28 24 28 24 28 26Z" stroke="#A2342E" stroke-width="3" stroke-miterlimit="10" stroke-linecap="round" stroke-linejoin="round"/>
<path id="Vector_2" d="M43.3 22C38.68 25.36 33.4 27.36 28 28.04" stroke="#A2342E" stroke-width="3" stroke-miterlimit="10" stroke-linecap="round" stroke-linejoin="round"/>
<path id="Vector_3" d="M5.23828 22.5391C9.73828 25.6191 14.8183 27.4791 19.9983 28.0591" stroke="#A2342E" stroke-width="3" stroke-miterlimit="10" stroke-linecap="round" stroke-linejoin="round"/>
</g>
<path id="Vector_4" d="M16 12V10.4C16 6.86 16 4 22.4 4H25.6C32 4 32 6.86 32 10.4V12" stroke="#A2342E" stroke-width="3" stroke-miterlimit="10" stroke-linecap="round" stroke-linejoin="round"/>
<path id="Vector_5" d="M15.9999 44H31.9999C40.0399 44 41.4799 40.78 41.8999 36.86L43.3999 20.86C43.9399 15.98 42.5399 12 33.9999 12H13.9999C5.4599 12 4.0599 15.98 4.5999 20.86L6.0999 36.86C6.5199 40.78 7.9599 44 15.9999 44Z" stroke="#1F1D1C" stroke-width="3" stroke-miterlimit="10" stroke-linecap="round" stroke-linejoin="round"/>
</svg>
