<svg id="advantage-layer" width="48" height="48" viewBox="0 0 48 48" fill="none" xmlns="http://www.w3.org/2000/svg">
<g id=".icon">
<g id="vuesax/twotone/layer">
<g id="layer">
<path id="Vector" d="M26.02 5.84001L37.82 11.08C41.22 12.58 41.22 15.06 37.82 16.56L26.02 21.8C24.68 22.4 22.48 22.4 21.14 21.8L9.33998 16.56C5.93998 15.06 5.93998 12.58 9.33998 11.08L21.14 5.84001C22.48 5.24001 24.68 5.24001 26.02 5.84001Z" stroke="#1F1D1C" stroke-width="3" stroke-linecap="round" stroke-linejoin="round"/>
<path id="Vector_2" d="M6 22C6 23.68 7.26 25.62 8.8 26.3L22.38 32.34C23.42 32.8 24.6 32.8 25.62 32.34L39.2 26.3C40.74 25.62 42 23.68 42 22" stroke="#A2342E" stroke-width="3" stroke-linecap="round" stroke-linejoin="round"/>
<path id="Vector_3" d="M6 32C6 33.86 7.1 35.54 8.8 36.3L22.38 42.34C23.42 42.8 24.6 42.8 25.62 42.34L39.2 36.3C40.9 35.54 42 33.86 42 32" stroke="#A2342E" stroke-width="3" stroke-linecap="round" stroke-linejoin="round"/>
</g>
</g>
</g>
</svg>
