<svg id="advantage-wallet" width="48" height="48" viewBox="0 0 48 48" fill="none" xmlns="http://www.w3.org/2000/svg">
<g id="vuesax/twotone/wallet">
<g id="wallet">
<path id="Vector" d="M35.5 14.1C35.02 14.02 34.52 14 34 14H14C13.44 14 12.9 14.04 12.38 14.12C12.66 13.56 13.06 13.04 13.54 12.56L20.04 6.04C22.78 3.32 27.22 3.32 29.96 6.04L33.46 9.58004C34.74 10.84 35.42 12.44 35.5 14.1Z" stroke="#1F1D1C" stroke-width="3" stroke-linecap="round" stroke-linejoin="round"/>
<path id="Vector_2" d="M44 25H38C35.8 25 34 26.8 34 29C34 31.2 35.8 33 38 33H44" stroke="#1F1D1C" stroke-width="3" stroke-linecap="round" stroke-linejoin="round"/>
<path id="Vector_3" d="M44 24V34C44 40 40 44 34 44H14C8 44 4 40 4 34V24C4 18.56 7.28 14.76 12.38 14.12C12.9 14.04 13.44 14 14 14H34C34.52 14 35.02 14.02 35.5 14.1C40.66 14.7 44 18.52 44 24Z" stroke="#A2342E" stroke-width="3" stroke-linecap="round" stroke-linejoin="round"/>
</g>
</g>
</svg>
