<svg id="advantage-shapes" width="48" height="48" viewBox="0 0 48 48" fill="none" xmlns="http://www.w3.org/2000/svg">
<path id="Vector" d="M26.86 30H8.8C5.16 30 2.84 26.1 4.6 22.9L9.26 14.42L13.62 6.48C15.44 3.18 20.2 3.18 22.02 6.48L26.4 14.42L28.5 18.24L31.06 22.9C32.82 26.1 30.5 30 26.86 30Z" stroke="#A2342E" stroke-width="3" stroke-linecap="round" stroke-linejoin="round"/>
<path id="Vector_2" d="M44 31C44 38.18 38.18 44 31 44C23.82 44 18 38.18 18 31C18 30.66 18.02 30.34 18.04 30H26.86C30.5 30 32.82 26.1 31.06 22.9L28.5 18.24C29.3 18.08 30.14 18 31 18C38.18 18 44 23.82 44 31Z" stroke="#1F1D1C" stroke-width="3" stroke-linecap="round" stroke-linejoin="round"/>
</svg>
