<svg id="advantage-brush" width="60" height="60" viewBox="0 0 60 60" fill="none" xmlns="http://www.w3.org/2000/svg">
<g id="brush" clip-path="url(#clip0_460_2708)">
<path id="Vector" d="M39.5502 29.9501C39.5502 24.7251 35.3252 20.4751 30.0752 20.4751" stroke="#A2342E" stroke-width="3" stroke-linecap="round" stroke-linejoin="round"/>
<path id="Vector_2" d="M27.4248 5H22.4248C9.9248 5 4.9248 10 4.9248 22.5V37.5C4.9248 50 9.9248 55 22.4248 55H37.4248C49.9248 55 54.9248 50 54.9248 37.5V32.5" stroke="#A2342E" stroke-width="3" stroke-linecap="round" stroke-linejoin="round"/>
<path id="Vector_3" d="M54.6996 8.90006C51.6246 16.5751 43.8996 27.0251 37.4496 32.2001L33.4996 35.3501C32.9996 35.7251 32.4996 36.0251 31.9246 36.2501C31.9246 35.8751 31.8996 35.5001 31.8496 35.1001C31.6246 33.4251 30.8746 31.8501 29.5246 30.5251C28.1496 29.1501 26.4996 28.3751 24.7996 28.1501C24.3996 28.1251 23.9996 28.1001 23.5996 28.1251C23.8246 27.5001 24.1496 26.9251 24.5746 26.4501L27.7246 22.5001C32.8996 16.0501 43.3746 8.27506 51.0246 5.20006C52.1996 4.75006 53.3496 5.10006 54.0746 5.82506C54.8246 6.57506 55.1746 7.72506 54.6996 8.90006Z" stroke="#1F1D1C" stroke-width="3" stroke-linecap="round" stroke-linejoin="round"/>
<path id="Vector_4" d="M31.9502 36.225C31.9502 38.425 31.1002 40.525 29.5252 42.125C28.3002 43.35 26.6502 44.2 24.6752 44.45L19.7502 44.975C17.0752 45.275 14.7752 43 15.0752 40.275L15.6002 35.35C16.0752 30.975 19.7252 28.175 23.6252 28.1C24.0252 28.075 24.4252 28.1 24.8252 28.125C26.5252 28.35 28.1752 29.125 29.5502 30.5C30.9002 31.85 31.6502 33.4 31.8752 35.075C31.9252 35.475 31.9502 35.875 31.9502 36.225Z" stroke="#1F1D1C" stroke-width="3" stroke-linecap="round" stroke-linejoin="round"/>
</g>
<defs>
<clipPath id="clip0_460_2708">
<rect width="60" height="60" fill="white"/>
</clipPath>
</defs>
</svg>
