<svg id="advantage-layer" width="60" height="60" viewBox="0 0 60 60" fill="none" xmlns="http://www.w3.org/2000/svg">
<g id="vuesax/twotone/layer">
<g id="vuesax/twotone/layer_2">
<g id="layer">
<path id="Vector" d="M32.5248 7.30005L47.2748 13.85C51.5248 15.725 51.5248 18.825 47.2748 20.7L32.5248 27.25C30.8498 28 28.0998 28 26.4248 27.25L11.6748 20.7C7.4248 18.825 7.4248 15.725 11.6748 13.85L26.4248 7.30005C28.0998 6.55005 30.8498 6.55005 32.5248 7.30005Z" stroke="#1F1D1C" stroke-width="3" stroke-linecap="round" stroke-linejoin="round"/>
<path id="Vector_2" d="M7.5 27.5C7.5 29.6 9.075 32.025 11 32.875L27.975 40.425C29.275 41 30.75 41 32.025 40.425L49 32.875C50.925 32.025 52.5 29.6 52.5 27.5" stroke="#A2342E" stroke-width="3" stroke-linecap="round" stroke-linejoin="round"/>
<path id="Vector_3" d="M7.5 40C7.5 42.325 8.875 44.425 11 45.375L27.975 52.925C29.275 53.5 30.75 53.5 32.025 52.925L49 45.375C51.125 44.425 52.5 42.325 52.5 40" stroke="#A2342E" stroke-width="3" stroke-linecap="round" stroke-linejoin="round"/>
</g>
</g>
</g>
</svg>
