<svg id="advantage-people" width="48" height="48" viewBox="0 0 48 48" fill="none" xmlns="http://www.w3.org/2000/svg">
<path id="Vector" d="M35.9953 14.32C35.8753 14.3 35.7353 14.3 35.6153 14.32C32.8553 14.22 30.6553 11.96 30.6553 9.16C30.6553 6.3 32.9553 4 35.8153 4C38.6753 4 40.9753 6.32 40.9753 9.16C40.9553 11.96 38.7553 14.22 35.9953 14.32Z" stroke="#A2342E" stroke-width="3" stroke-linecap="round" stroke-linejoin="round"/>
<path id="Vector_2" d="M33.935 28.8801C36.675 29.3401 39.695 28.8601 41.815 27.4401C44.635 25.5601 44.635 22.4801 41.815 20.6001C39.675 19.1801 36.615 18.7001 33.875 19.1801" stroke="#A2342E" stroke-width="3" stroke-linecap="round" stroke-linejoin="round"/>
<path id="Vector_3" d="M11.9351 14.32C12.0551 14.3 12.1951 14.3 12.3151 14.32C15.0751 14.22 17.2751 11.96 17.2751 9.16C17.2751 6.3 14.9751 4 12.1151 4C9.25508 4 6.95508 6.32 6.95508 9.16C6.97508 11.96 9.17508 14.22 11.9351 14.32Z" stroke="#A2342E" stroke-width="3" stroke-linecap="round" stroke-linejoin="round"/>
<path id="Vector_4" d="M13.995 28.8801C11.255 29.3401 8.235 28.8601 6.115 27.4401C3.295 25.5601 3.295 22.4801 6.115 20.6001C8.255 19.1801 11.315 18.7001 14.055 19.1801" stroke="#A2342E" stroke-width="3" stroke-linecap="round" stroke-linejoin="round"/>
<g id="Group">
<path id="Vector_5" d="M23.9999 29.2599C23.8799 29.2399 23.7399 29.2399 23.6199 29.2599C20.8599 29.1599 18.6599 26.8999 18.6599 24.0999C18.6599 21.2399 20.9599 18.9399 23.8199 18.9399C26.6799 18.9399 28.9799 21.2599 28.9799 24.0999C28.9599 26.8999 26.7599 29.1799 23.9999 29.2599Z" stroke="#1F1D1C" stroke-width="3" stroke-linecap="round" stroke-linejoin="round"/>
<path id="Vector_6" d="M18.1799 35.56C15.3599 37.44 15.3599 40.52 18.1799 42.4C21.3799 44.54 26.6199 44.54 29.8199 42.4C32.6399 40.52 32.6399 37.44 29.8199 35.56C26.6399 33.44 21.3799 33.44 18.1799 35.56Z" stroke="#1F1D1C" stroke-width="3" stroke-linecap="round" stroke-linejoin="round"/>
</g>
</svg>
