<svg id="advantage-box" width="48" height="48" viewBox="0 0 48 48" fill="none" xmlns="http://www.w3.org/2000/svg">
<g id="vuesax/twotone/box">
<g id="box">
<g id="Group 139">
<path id="Vector" d="M6.33984 14.88L23.9998 25.1L41.5398 14.9399" stroke="#1F1D1C" stroke-width="3" stroke-linecap="round" stroke-linejoin="round"/>
<path id="Vector_2" d="M24 43.22V25.08" stroke="#1F1D1C" stroke-width="3" stroke-linecap="round" stroke-linejoin="round"/>
<path id="Vector_3" d="M19.8602 4.96L9.18024 10.9001C6.76024 12.2401 4.78027 15.6 4.78027 18.36V29.6601C4.78027 32.4201 6.76024 35.78 9.18024 37.12L19.8602 43.0601C22.1402 44.3201 25.8802 44.3201 28.1602 43.0601L38.8403 37.12C41.2603 35.78 43.2402 32.4201 43.2402 29.6601V18.36C43.2402 15.6 41.2603 12.2401 38.8403 10.9001L28.1602 4.96C25.8602 3.68 22.1402 3.68 19.8602 4.96Z" stroke="#1F1D1C" stroke-width="3" stroke-linecap="round" stroke-linejoin="round"/>
</g>
<path id="Vector_4" d="M34 26.48V19.16L15.02 8.19995" stroke="#A2342E" stroke-width="3" stroke-linecap="round" stroke-linejoin="round"/>
</g>
</g>
</svg>
