<svg id="advantage-setting" width="48" height="48" viewBox="0 0 48 48" fill="none" xmlns="http://www.w3.org/2000/svg">
<path id="Vector" d="M24 30C27.3137 30 30 27.3137 30 24C30 20.6863 27.3137 18 24 18C20.6863 18 18 20.6863 18 24C18 27.3137 20.6863 30 24 30Z" stroke="#1F1D1C" stroke-width="3" stroke-linecap="round" stroke-linejoin="round"/>
<path id="Vector_2" d="M6 18.22V29.76C6 34 6 34 10 36.7L21 43.06C22.66 44.02 25.36 44.02 27 43.06L38 36.7C42 34 42 34 42 29.78V18.22C42 14 42 14 38 11.3L27 4.93997C25.36 3.97997 22.66 3.97997 21 4.93997L10 11.3C6 14 6 14 6 18.22Z" stroke="#A2342E" stroke-width="3" stroke-linecap="round" stroke-linejoin="round"/>
</svg>
