<svg id="advantage-brush" width="48" height="48" viewBox="0 0 48 48" fill="none" xmlns="http://www.w3.org/2000/svg">
<g id="brush" clip-path="url(#clip0_419_1539)">
<path id="Vector" d="M31.64 23.96C31.64 19.78 28.26 16.38 24.06 16.38" stroke="#A2342E" stroke-width="3" stroke-linecap="round" stroke-linejoin="round"/>
<path id="Vector_2" d="M21.94 4H17.94C7.94 4 3.94 8 3.94 18V30C3.94 40 7.94 44 17.94 44H29.94C39.94 44 43.94 40 43.94 30V26" stroke="#A2342E" stroke-width="3" stroke-linecap="round" stroke-linejoin="round"/>
<path id="Vector_3" d="M43.76 7.12001C41.3 13.26 35.12 21.62 29.96 25.76L26.8 28.28C26.4 28.58 26 28.82 25.54 29C25.54 28.7 25.52 28.4 25.48 28.08C25.3 26.74 24.7 25.48 23.62 24.42C22.52 23.32 21.2 22.7 19.84 22.52C19.52 22.5 19.2 22.48 18.88 22.5C19.06 22 19.32 21.54 19.66 21.16L22.18 18C26.32 12.84 34.7 6.62001 40.82 4.16001C41.76 3.80001 42.68 4.08001 43.26 4.66001C43.86 5.26001 44.14 6.18001 43.76 7.12001Z" stroke="#1F1D1C" stroke-width="3" stroke-linecap="round" stroke-linejoin="round"/>
<path id="Vector_4" d="M25.56 28.98C25.56 30.74 24.88 32.42 23.62 33.7C22.64 34.68 21.32 35.36 19.74 35.56L15.8 35.98C13.66 36.22 11.82 34.4 12.06 32.22L12.48 28.28C12.86 24.78 15.78 22.54 18.9 22.48C19.22 22.46 19.54 22.48 19.86 22.5C21.22 22.68 22.54 23.3 23.64 24.4C24.72 25.48 25.32 26.72 25.5 28.06C25.54 28.38 25.56 28.7 25.56 28.98Z" stroke="#1F1D1C" stroke-width="3" stroke-linecap="round" stroke-linejoin="round"/>
</g>
<defs>
<clipPath id="clip0_419_1539">
<rect width="48" height="48" fill="white"/>
</clipPath>
</defs>
</svg>
