<svg id="arrow-up" width="24" height="24" viewBox="0 0 24 24" fill="none" xmlns="http://www.w3.org/2000/svg">
<g id="vuesax/linear/arrow-up">
<path id="Union" fill-rule="evenodd" clip-rule="evenodd" d="M11.9997 2.75C12.1986 2.75 12.3894 2.82902 12.53 2.96967L18.6 9.03967C18.8929 9.33256 18.8929 9.80744 18.6 10.1003C18.3071 10.3932 17.8322 10.3932 17.5394 10.1003L12.7497 5.31066V20.5C12.7497 20.9142 12.4139 21.25 11.9997 21.25C11.5855 21.25 11.2497 20.9142 11.2497 20.5V5.31066L6.46002 10.1003C6.16712 10.3932 5.69225 10.3932 5.39936 10.1003C5.10646 9.80744 5.10646 9.33256 5.39936 9.03967L11.4694 2.96967C11.61 2.82902 11.8008 2.75 11.9997 2.75Z" fill="black"/>
</g>
</svg>
