<svg id="arrow-right" width="24" height="24" viewBox="0 0 24 24" fill="none" xmlns="http://www.w3.org/2000/svg">
<g id="vuesax/linear/arrow-right">
<path id="Union" fill-rule="evenodd" clip-rule="evenodd" d="M13.8997 5.39972C14.1926 5.10683 14.6674 5.10683 14.9603 5.39972L21.0303 11.4697C21.171 11.6104 21.25 11.8011 21.25 12.0001C21.25 12.199 21.171 12.3897 21.0303 12.5304L14.9603 18.6004C14.6674 18.8933 14.1926 18.8933 13.8997 18.6004C13.6068 18.3075 13.6068 17.8326 13.8997 17.5397L18.6893 12.7501H3.5C3.08579 12.7501 2.75 12.4143 2.75 12.0001C2.75 11.5858 3.08579 11.2501 3.5 11.2501H18.6893L13.8997 6.46038C13.6068 6.16749 13.6068 5.69262 13.8997 5.39972Z" fill="black"/>
</g>
</svg>
