<svg id="arrow-down" width="24" height="24" viewBox="0 0 24 24" fill="none" xmlns="http://www.w3.org/2000/svg">
<g id="vuesax/linear/arrow-down">
<path id="Union" fill-rule="evenodd" clip-rule="evenodd" d="M11.9997 2.75C12.4139 2.75 12.7497 3.08579 12.7497 3.5V18.6893L17.5394 13.8997C17.8322 13.6068 18.3071 13.6068 18.6 13.8997C18.8929 14.1926 18.8929 14.6674 18.6 14.9603L12.53 21.0303C12.3894 21.171 12.1986 21.25 11.9997 21.25C11.8008 21.25 11.61 21.171 11.4694 21.0303L5.39936 14.9603C5.10646 14.6674 5.10646 14.1926 5.39936 13.8997C5.69225 13.6068 6.16712 13.6068 6.46002 13.8997L11.2497 18.6893V3.5C11.2497 3.08579 11.5855 2.75 11.9997 2.75Z" fill="black"/>
</g>
</svg>
