<svg id="filled-clock" viewBox="0 0 23 23" xmlns="http://www.w3.org/2000/svg">
	<path fill-rule="evenodd" clip-rule="evenodd" d="M9.46283 0.144582C4.94271 0.964624 1.43908 4.24695 0.254202 8.77141C0.0366536 9.60191 0 9.99824 0 11.5207C0 13.0432 0.0366536 13.4395 0.254202 14.27C0.825241 16.4508 1.76713 18.1024 3.33212 19.6675C4.89711 21.2327 6.54856 22.1747 8.72912 22.7458C9.55953 22.9633 9.95582 23 11.4781 23C13.0004 23 13.3967 22.9633 14.2271 22.7458C16.4077 22.1747 18.0591 21.2327 19.6241 19.6675C21.7404 17.5511 22.8412 15.0709 22.9815 12.1041C23.0577 10.4909 22.9048 9.35631 22.4091 7.85498C21.0779 3.82324 17.6536 0.881499 13.4314 0.142641C12.3403 -0.0482994 10.5215 -0.0474367 9.46283 0.144582ZM12.2411 5.04349L12.5562 5.35863V8.09186V10.825L14.404 11.7389C16.6791 12.8641 17.0501 13.1171 17.1418 13.6067C17.2207 14.0269 16.9895 14.5749 16.6587 14.7519C16.1482 15.0252 15.7098 14.8816 13.1985 13.6186C11.199 12.6129 10.6932 12.3139 10.5622 12.0605C10.4287 11.8022 10.4001 11.1849 10.4001 8.55287V5.35863L10.7152 5.04349C11.1589 4.59972 11.7973 4.59972 12.2411 5.04349Z"/>
</svg>