<svg id="filled-call" viewBox="0 0 23 23" xmlns="http://www.w3.org/2000/svg">
	<path d="M23 18.7795C23 19.1935 22.9079 19.619 22.7121 20.033C22.5163 20.447 22.2629 20.838 21.9289 21.206C21.3645 21.827 20.7426 22.2755 20.0401 22.563C19.349 22.8505 18.6004 23 17.7942 23C16.6194 23 15.364 22.724 14.0396 22.1605C12.7151 21.597 11.3906 20.838 10.0776 19.8835C8.75313 18.9175 7.49775 17.848 6.29995 16.6635C5.11367 15.4675 4.04256 14.214 3.08663 12.903C2.14221 11.592 1.38207 10.281 0.829244 8.9815C0.276415 7.6705 0 6.417 0 5.221C0 4.439 0.138207 3.6915 0.414622 3.0015C0.691036 2.3 1.12869 1.656 1.73911 1.081C2.47621 0.3565 3.28242 0 4.1347 0C4.45719 0 4.77967 0.0690001 5.0676 0.207C5.36705 0.345 5.63195 0.552 5.83926 0.851L8.51127 4.6115C8.71858 4.899 8.8683 5.1635 8.97196 5.4165C9.07561 5.658 9.1332 5.8995 9.1332 6.118C9.1332 6.394 9.05258 6.67 8.89134 6.9345C8.74161 7.199 8.52278 7.475 8.24637 7.751L7.37106 8.6595C7.24437 8.786 7.18678 8.9355 7.18678 9.1195C7.18678 9.2115 7.1983 9.292 7.22133 9.384C7.25589 9.476 7.29044 9.545 7.31347 9.614C7.52078 9.9935 7.87782 10.488 8.38458 11.086C8.90285 11.684 9.45568 12.2935 10.0546 12.903C10.6765 13.5125 11.2754 14.076 11.8858 14.5935C12.4847 15.0995 12.98 15.4445 13.3716 15.6515C13.4291 15.6745 13.4982 15.709 13.5789 15.7435C13.671 15.778 13.7631 15.7895 13.8668 15.7895C14.0626 15.7895 14.2123 15.7205 14.339 15.594L15.2143 14.7315C15.5023 14.444 15.7787 14.2255 16.0436 14.0875C16.3085 13.9265 16.5734 13.846 16.8613 13.846C17.0801 13.846 17.3105 13.892 17.5638 13.9955C17.8172 14.099 18.0821 14.2485 18.3701 14.444L22.1823 17.1465C22.4817 17.3535 22.689 17.595 22.8157 17.8825C22.9309 18.17 23 18.4575 23 18.7795Z"/>
</svg>