<svg id="foruse_no_bleach" viewBox="0 0 34 34" fill="none" xmlns="http://www.w3.org/2000/svg">
	<path fill-rule="evenodd" clip-rule="evenodd" d="M0.0517374 0.912345C0.0517374 1.48522 1.49605 3.20008 4.57365 6.28028L9.09593 10.8068L4.57553 18.3386C-0.465785 26.7377 -0.845628 27.9355 1.05698 29.43L2.06185 30.2194L1.05698 31.2669C0.504004 31.8432 0.0517374 32.6865 0.0517374 33.1414C0.0517374 34.6092 1.59337 34.155 3.63516 32.085L5.49289 30.2017H17.0259H28.5588L30.4166 32.085C32.4584 34.155 34 34.6092 34 33.1414C34 32.6865 33.5632 31.8594 33.0295 31.3027L32.0585 30.2914L33.0295 29.3219C34.7122 27.6417 34.4168 26.7355 29.4766 18.4218L24.9532 10.8094L29.4766 6.28179C32.5553 3.20046 34 1.48522 34 0.912345C34 -0.952046 32.4259 -0.0413191 27.9595 4.40685L23.605 8.74354L22.1543 6.19592C20.1336 2.64717 18.9971 1.21366 17.8625 0.783156C16.1029 0.114989 15.0712 0.939087 12.6292 4.96429L10.3694 8.68968L6.06548 4.37974C3.10595 1.41667 1.49454 0.0701679 0.906479 0.0701679C0.273155 0.0701679 0.0517374 0.288245 0.0517374 0.912345ZM19.7474 6.85241L21.9027 10.4279L19.4645 12.8727L17.0259 15.3171L14.5823 12.8727L12.1392 10.4279L14.2994 6.75599C15.6834 4.40384 16.6634 3.11873 17.0259 3.18088C17.3371 3.23361 18.5618 4.88595 19.7474 6.85241ZM9.85939 22.4801C4.45143 27.8895 3.01542 28.8447 2.46018 27.3999C2.344 27.0978 4.14628 23.6854 6.5268 19.6998L10.802 12.5416L13.0611 14.78L15.3198 17.018L9.85939 22.4801ZM31.5923 27.398C31.0363 28.8443 29.6022 27.8918 24.1961 22.4839L18.7399 17.026L20.968 14.7781L23.1958 12.53L27.4985 19.6918C29.9111 23.7076 31.7096 27.0929 31.5923 27.398ZM21.7409 23.4221L26.2556 27.9419H17.0259H7.79609L12.3108 23.4221C14.794 20.9363 16.9157 18.9024 17.0259 18.9024C17.136 18.9024 19.2578 20.9363 21.7409 23.4221Z" fill="#4E4E4E"/>
</svg>