<svg id="foruse_do_not_iron" viewBox="0 0 35 36" fill="none" xmlns="http://www.w3.org/2000/svg">
	<path fill-rule="evenodd" clip-rule="evenodd" d="M0.207747 0.64343C-0.242503 1.19882 0.61261 2.23637 6.48032 8.25434L13.2738 15.2218H11.7154C9.48266 15.2218 6.88518 16.7082 4.5046 19.3482C2.34051 21.7483 1.22955 24.2274 0.77809 27.6667L0.521435 29.6208H2.67308H4.82472L2.23849 32.2937C-0.20997 34.8238 -0.310784 35.004 0.345111 35.6758C1.00101 36.3472 1.21468 36.2053 4.3572 33.003L7.67643 29.6208H17.5H27.3236L30.6428 33.003C33.7853 36.2053 33.999 36.3472 34.6549 35.6758C35.3108 35.004 35.21 34.8238 32.7615 32.2937L30.1753 29.6208H32.2723C33.4254 29.6208 34.3693 29.4538 34.3693 29.2498C34.3693 28.9289 30.9774 17.9465 28.7659 11.1078L28.0341 8.84511L31.6927 5.04295C35.1602 1.43949 35.3148 1.20376 34.6565 0.529472C33.9986 -0.144813 33.7873 -0.00370253 30.6115 3.23196L27.2609 6.64618L18.9664 6.59928C10.8756 6.55361 10.6719 6.57336 10.6719 7.3904C10.6719 8.20333 10.8953 8.22801 18.1941 8.22801H25.7162L22.3198 11.7249C17.31 16.8831 17.8711 17.0521 8.66369 7.61091C4.58132 3.42491 1.12592 0 0.985342 0C0.844362 0 0.494525 0.289626 0.207747 0.64343ZM27.9116 14.7076C27.9341 15.0774 27.0717 15.2218 24.8426 15.2218H21.7426L24.1357 12.7444L26.5291 10.2673L27.2051 12.2301C27.5766 13.31 27.8947 14.4249 27.9116 14.7076ZM15.5114 17.5084C15.9573 18.0592 15.5259 18.6694 12.4561 21.8281L8.88139 25.5068H5.98187H3.08236L3.49566 24.2928C4.0668 22.6147 6.88719 19.428 9.03803 18.0309C11.1383 16.6667 14.6025 16.3873 15.5114 17.5084ZM29.7041 20.6766C30.3416 22.7673 30.9481 24.7099 31.0525 24.9926C31.1919 25.3707 30.5633 25.5068 28.6803 25.5068H26.1186L22.5439 21.8281C17.9948 17.1472 18.0932 16.8658 24.2766 16.8711L28.5454 16.8744L29.7041 20.6766ZM20.5124 22.627L23.3022 25.5068H17.5H11.6978L14.4876 22.627C16.0219 21.0431 17.3775 19.7472 17.5 19.7472C17.6225 19.7472 18.9781 21.0431 20.5124 22.627ZM5.75173 27.8584C5.14443 27.9526 4.15035 27.9526 3.54265 27.8584C2.93535 27.7642 3.4322 27.6873 4.64719 27.6873C5.86218 27.6873 6.35942 27.7642 5.75173 27.8584ZM21.6169 27.8707C19.3524 27.944 15.6476 27.944 13.3831 27.8707C11.1186 27.7975 12.9714 27.7374 17.5 27.7374C22.0286 27.7374 23.8814 27.7975 21.6169 27.8707ZM31.2621 27.8535C30.7681 27.951 29.8644 27.9534 29.2539 27.8592C28.6434 27.7646 29.0474 27.6848 30.152 27.6815C31.2565 27.6786 31.7562 27.756 31.2621 27.8535Z" fill="#4E4E4E"/>
</svg>