<svg id="foruse_dry" viewBox="0 0 32 32" fill="none" xmlns="http://www.w3.org/2000/svg">
	<path fill-rule="evenodd" clip-rule="evenodd" d="M0 16V32H16H32V16V0H16H0V16ZM30.3158 16V30.3158H16H1.68421V16V1.68421H16H30.3158V16ZM10.9739 3.87032C2.52758 7.11326 0.209263 18.7756 6.71663 25.2834C13.2775 31.8438 24.9499 29.4606 28.1503 20.9065C32.2497 9.94989 21.8931 -0.322105 10.9739 3.87032ZM18.8421 5.28547C22.2358 5.96842 26.1882 10.2648 26.8931 14.0366C27.9583 19.7402 23.7398 25.8139 17.9634 26.8931C10.6139 28.2661 3.73853 21.3676 5.11368 14C5.87705 9.90779 9.88337 5.872 13.9533 5.09516C15.7238 4.75747 16.3347 4.78105 18.8421 5.28547ZM14.4901 14.8897C14.3575 15.2354 14.3116 15.9579 14.3878 16.4956C14.5027 17.3061 14.7785 17.4737 16 17.4737C17.4034 17.4737 17.4737 17.4034 17.4737 16C17.4737 14.6446 17.3638 14.5158 16.1023 14.3941C15.1827 14.3057 14.6518 14.4686 14.4901 14.8897Z" fill="#4E4E4E"/>
</svg>