<svg id="foruse_wash" viewBox="0 0 36 26" fill="none" xmlns="http://www.w3.org/2000/svg">
	<path d="M0.428465 0.333831L0.428286 0.334013C0.418631 0.343823 0.393039 0.380823 0.361735 0.463046C0.332424 0.540034 0.304232 0.640084 0.279769 0.757672C0.23088 0.992668 0.2 1.28254 0.2 1.56752C0.2 1.62903 0.21541 1.77428 0.249577 2.00824C0.282933 2.23665 0.332113 2.53665 0.395158 2.89862C0.521206 3.62232 0.701895 4.58927 0.920197 5.71747C1.35675 7.97362 1.94308 10.8713 2.54191 13.7505C3.14075 16.6297 3.75191 19.4896 4.23811 21.6701C4.48125 22.7605 4.69292 23.6801 4.85607 24.3469C4.9377 24.6805 5.0068 24.9494 5.06139 25.1442C5.08874 25.2417 5.11192 25.3188 5.1308 25.3754C5.13922 25.4006 5.14592 25.4191 5.15087 25.432C5.17866 25.4429 5.22338 25.4562 5.2894 25.4706C5.42675 25.5005 5.62989 25.5296 5.904 25.5569C6.45063 25.6113 7.25691 25.6566 8.33408 25.6928C10.4872 25.765 13.7081 25.8 18.0667 25.8H30.7422L31.0665 25.0081C31.0665 25.0081 31.0665 25.0081 31.0665 25.0081C31.1466 24.8121 31.2845 24.3148 31.4662 23.572C31.6463 22.836 31.8657 21.8749 32.1094 20.7645C32.5966 18.5438 33.1799 15.7297 33.7375 12.9325C34.2951 10.1352 34.8268 7.35597 35.211 5.20518C35.4031 4.1296 35.5581 3.21241 35.661 2.52915C35.7124 2.18734 35.7506 1.90575 35.7739 1.69291C35.7981 1.47135 35.8034 1.34548 35.7983 1.30012C35.7432 0.813533 35.6674 0.609818 35.5428 0.503717C35.4818 0.451754 35.3937 0.410431 35.2507 0.383108C35.1058 0.355425 34.9176 0.344449 34.6665 0.344449C34.1609 0.344449 33.91 0.401449 33.7316 0.553919C33.5427 0.715377 33.3978 1.01329 33.2059 1.61591C33.2059 1.61593 33.2059 1.61596 33.2059 1.61598L33.0154 1.55531C32.625 2.78294 32.312 3.03457 30.6107 3.49101L0.428465 0.333831ZM0.428465 0.333831C0.434568 0.327615 0.464851 0.305287 0.539947 0.280252C0.61011 0.256862 0.702314 0.236681 0.811823 0.222399C1.03065 0.19386 1.30046 0.19119 1.56467 0.222531L0.428465 0.333831ZM5.12786 25.4213C5.12791 25.4212 5.12885 25.4217 5.13046 25.4229C5.1286 25.4218 5.1278 25.4213 5.12786 25.4213ZM20.4977 6.52877L20.4977 6.52878C18.3892 6.97829 17.4148 6.99993 15.875 6.6479C14.7734 6.39599 13.5987 6.13441 13.2652 6.06665C13.1527 6.04378 12.981 6.04614 12.788 6.05991C12.5875 6.07422 12.3409 6.10287 12.0656 6.14296C11.5148 6.22319 10.8405 6.35051 10.1743 6.50556L10.2196 6.70036L10.1743 6.50556C8.03464 7.00359 6.09496 6.96771 4.71674 6.43054C4.65772 6.40751 4.5721 6.39172 4.48373 6.43204C4.39759 6.47134 4.35142 6.54477 4.32662 6.60531C4.28017 6.71875 4.2702 6.88133 4.27602 7.07381C4.28811 7.47379 4.37638 8.14233 4.55573 9.18179C4.91544 11.2665 5.65007 14.8895 6.91466 20.9512L7.11044 20.9103L6.91466 20.9512L7.25451 22.5799L7.28772 22.739H7.4503H18.0346H28.6189H28.7814L28.8147 22.58L29.1132 21.1549L29.1133 21.1549C29.2772 20.371 30.0262 16.78 30.7777 13.1749L30.7777 13.1749L32.1435 6.61982L32.2063 6.31833L31.9053 6.38356L30.2502 6.74227C30.2502 6.74227 30.2502 6.74228 30.2502 6.74228C29.1521 6.98002 27.8234 6.91863 25.9827 6.52633L25.9826 6.52632C24.8188 6.27866 24.0338 6.1513 23.2428 6.15166C22.4519 6.15203 21.6651 6.28011 20.4977 6.52877ZM11.9823 9.98941L11.9823 9.9894C12.4514 9.52952 12.9808 9.09047 13.4542 8.7546C13.6909 8.58666 13.9114 8.44612 14.1016 8.34207C14.2954 8.23601 14.4445 8.17522 14.542 8.15534C15.5567 7.9494 16.2455 7.92708 16.6714 8.06114C16.8775 8.12603 17.0118 8.22438 17.097 8.34834C17.1834 8.47394 17.2335 8.64602 17.2335 8.882C17.2335 9.26684 17.1698 9.46133 17.0348 9.59405C16.8868 9.73946 16.6178 9.84855 16.1004 9.95614C15.3632 10.109 14.2568 10.5808 13.624 11.011C13.6239 11.011 13.6239 11.011 13.6239 11.011L12.5118 11.7667L12.0836 12.0577L12.5962 12.1302L14.3648 12.3802L14.3928 12.1821L14.3648 12.3802C15.5615 12.5493 16.4195 12.9806 16.9815 13.6678C17.5452 14.357 17.8346 15.332 17.8346 16.635C17.8346 17.3853 17.7774 17.9279 17.6364 18.3849C17.4965 18.8379 17.2705 19.2185 16.9149 19.6386C16.5003 20.1282 16.2148 20.3804 15.8184 20.5235C15.409 20.6714 14.8625 20.7103 13.9035 20.7103C12.6194 20.7103 11.7569 20.5211 11.1315 20.0727C10.5083 19.6257 10.0864 18.8964 9.74336 17.7332C8.99308 15.1892 9.89663 12.034 11.9823 9.98941ZM20.6581 8.26615L20.6582 8.26613C22.9454 7.32825 25.5549 8.30029 26.2183 10.2336C26.5235 11.1233 26.6631 12.8533 26.6357 14.5904C26.6221 15.4542 26.5673 16.3109 26.4735 17.054C26.3791 17.8013 26.247 18.4192 26.0847 18.8138L26.0846 18.8139C25.1512 21.0842 21.8916 21.6973 19.7985 19.9077L19.7985 19.9077L18.6354 18.9134V14.6537C18.6354 12.3259 18.7354 10.8937 19.0417 9.95603C19.1929 9.49326 19.3922 9.15864 19.6497 8.89811C19.9082 8.6366 20.2355 8.43937 20.6581 8.26615ZM24.2091 10.8145L24.2091 10.8145C24.0609 10.5334 23.7901 10.3254 23.4871 10.1824C23.1816 10.0382 22.8253 9.9512 22.4775 9.92281C22.1306 9.8945 21.7796 9.92353 21.4867 10.0228C21.1963 10.1212 20.9338 10.3 20.824 10.5906L20.824 10.5908C20.8015 10.6504 20.7863 10.7315 20.7744 10.8165C20.7619 10.9062 20.751 11.0164 20.7416 11.1433C20.7227 11.3974 20.7092 11.7264 20.7012 12.1064C20.6852 12.867 20.6915 13.8396 20.7239 14.8413C20.7239 14.8413 20.7239 14.8413 20.7239 14.8413L20.8405 18.4737L20.846 18.646L21.0172 18.6659L22.1434 18.797C22.6181 18.8523 23.0255 18.8523 23.3654 18.7522C23.7156 18.649 23.9836 18.4426 24.1777 18.1129C24.3666 17.7922 24.4815 17.362 24.551 16.8131C24.6209 16.262 24.6469 15.5739 24.6469 14.7262C24.6469 13.8859 24.5999 13.0324 24.5239 12.3327C24.4859 11.9829 24.4404 11.6692 24.3893 11.4135C24.3394 11.164 24.2806 10.9505 24.2091 10.8145ZM15.83 16.635C15.83 16.3213 15.7721 15.9816 15.6797 15.6844C15.5892 15.3931 15.4572 15.1157 15.2916 14.9474C15.1258 14.7789 14.8519 14.6445 14.5644 14.5522C14.2713 14.4582 13.936 14.3991 13.6261 14.3991C12.953 14.3991 12.3969 14.5792 12.0079 14.9451C11.6172 15.3127 11.4223 15.8421 11.4223 16.4839C11.4223 17.7539 12.5172 18.8709 13.7748 18.8709C14.4091 18.8709 14.9318 18.6719 15.2939 18.2746C15.6534 17.88 15.83 17.3168 15.83 16.635Z" fill="#4E4E4E" stroke="white" stroke-width="0.4"/>
</svg>