<svg id="i_chat" viewBox="0 0 31 30" xmlns="http://www.w3.org/2000/svg">
	<path fill-rule="evenodd" clip-rule="evenodd" d="M2.49173 0.149503C1.43073 0.528058 0.400329 1.58114 0.115899 2.57779C0.0125917 2.94016 -0.0169078 4.86872 0.00870661 9.58828L0.0441541 16.0989L0.324942 16.6497C0.891495 17.7613 2.09744 18.6038 3.2791 18.7135L3.86811 18.7682V21.312C3.86811 23.7098 3.88231 23.8704 4.11564 24.1124C4.28826 24.2914 4.50592 24.3692 4.83478 24.3692C5.27508 24.3692 5.53099 24.183 8.69953 21.5574L12.0927 18.7456L17.2975 18.7127C22.458 18.6799 22.5072 18.6774 23.0723 18.4084C23.7997 18.0622 24.534 17.3526 24.8922 16.6497L25.173 16.0989V9.35366V2.60841L24.8922 2.05765C24.534 1.35473 23.7997 0.645132 23.0723 0.298954L22.5023 0.0276186L12.73 0.00544731C4.55752 -0.0129702 2.88141 0.010609 2.49173 0.149503ZM21.6432 1.95817C22.2401 2.09202 22.6755 2.40148 22.9879 2.914C23.2198 3.29443 23.2324 3.55932 23.2689 8.82577C23.2901 11.8582 23.2728 14.6138 23.2307 14.9493C23.1399 15.6721 22.7827 16.2301 22.1985 16.5618C21.7923 16.7923 21.5435 16.8053 16.4322 16.8614L11.0903 16.9201L8.51622 19.061C7.10039 20.2384 5.91241 21.2018 5.87624 21.2018C5.84006 21.2018 5.81044 20.3308 5.81044 19.2663C5.81044 16.895 5.83023 16.9284 4.37287 16.8319C2.83309 16.7299 2.14162 16.1843 1.98648 14.9493C1.94436 14.6138 1.92712 11.8582 1.94824 8.82577C1.98478 3.55932 1.99741 3.29443 2.22927 2.914C2.5307 2.41954 2.98375 2.08557 3.51886 1.96345C4.09342 1.83241 21.0598 1.82749 21.6432 1.95817ZM6.05323 5.8344C5.89141 5.99077 5.81044 6.22539 5.81044 6.53825C5.81044 6.85112 5.89141 7.08573 6.05323 7.24211C6.28983 7.47074 6.45784 7.47672 12.6086 7.47672C18.7593 7.47672 18.9273 7.47074 19.1639 7.24211C19.3258 7.08573 19.4067 6.85112 19.4067 6.53825C19.4067 6.22539 19.3258 5.99077 19.1639 5.8344C18.9273 5.60577 18.7593 5.59978 12.6086 5.59978C6.45784 5.59978 6.28983 5.60577 6.05323 5.8344ZM27.4959 5.96027C27.2373 6.15677 27.176 6.30176 27.176 6.71727C27.176 7.25876 27.1836 7.2678 28.1407 7.86267C28.3707 8.00567 28.6712 8.30727 28.8083 8.53285C29.0487 8.9283 29.059 9.14133 29.0959 14.4566C29.117 17.489 29.0998 20.2446 29.0577 20.5801C28.9025 21.8151 28.2111 22.3607 26.6713 22.4627C25.2139 22.5592 25.2337 22.5258 25.2337 24.8971C25.2337 25.9616 25.2047 26.8327 25.1693 26.8327C25.1339 26.8327 23.9286 25.8561 22.4909 24.6625L19.877 22.4922H15.1107H10.3444L10.0804 22.7637C9.71877 23.1358 9.72678 23.7776 10.0974 24.1141C10.3749 24.366 10.4311 24.3692 14.6605 24.3692H18.9428L22.3403 27.1846C25.5129 29.8137 25.7691 30 26.2094 30C26.5382 30 26.7559 29.9222 26.9285 29.7432C27.1618 29.5012 27.176 29.3406 27.176 26.9428V24.399L27.7651 24.3443C28.9467 24.2346 30.1527 23.3921 30.7192 22.2805L31 21.7297V14.9845V8.23923L30.7237 7.69726C30.2198 6.70905 28.9075 5.71709 28.1042 5.71709C27.9456 5.71709 27.6718 5.82654 27.4959 5.96027ZM6.05323 9.58828C5.89141 9.74465 5.81044 9.97927 5.81044 10.2921C5.81044 10.605 5.89141 10.8396 6.05323 10.996C6.28704 11.2219 6.45784 11.2306 10.6663 11.2306C14.8747 11.2306 15.0455 11.2219 15.2793 10.996C15.4411 10.8396 15.5221 10.605 15.5221 10.2921C15.5221 9.97927 15.4411 9.74465 15.2793 9.58828C15.0455 9.36234 14.8747 9.35366 10.6663 9.35366C6.45784 9.35366 6.28704 9.36234 6.05323 9.58828Z"/>
</svg>