<svg id="i_connection" viewBox="0 0 21 15" xmlns="http://www.w3.org/2000/svg">
	<path fill-rule="evenodd" clip-rule="evenodd" d="M1.10628 0.154713C0.925806 0.239822 0.660011 0.435881 0.515711 0.590511C-0.0233438 1.16777 -0.00135824 0.872846 0.000610608 7.51676C0.00257946 14.2479 -0.0276917 13.8864 0.583554 14.4756C1.16289 15.0342 0.534005 15.001 10.5172 14.999C19.1555 14.9973 19.5791 14.9902 19.8924 14.8425C20.0729 14.7573 20.3387 14.5613 20.483 14.4067C21.0217 13.8297 20.9999 14.1218 20.9999 7.49859C20.9999 0.875346 21.0217 1.16752 20.483 0.590511C20.3387 0.435881 20.0729 0.239822 19.8924 0.154713C19.579 0.00691866 19.1571 0 10.4993 0C1.84157 0 1.41966 0.00691866 1.10628 0.154713ZM15.2284 4.93657C13.0805 7.08913 11.4244 8.68377 11.2497 8.76763C10.8627 8.95352 10.136 8.95352 9.74896 8.76763C9.57431 8.68377 7.91818 7.08913 5.77024 4.93657L2.09071 1.24929H10.4993H18.908L15.2284 4.93657ZM3.87482 10.1867L1.22934 12.8749V7.49859V2.1223L3.87482 4.81044L6.5203 7.49859L3.87482 10.1867ZM19.7693 7.51926V12.8749L17.124 10.1869L14.4787 7.49892L17.103 4.83128C18.5464 3.36409 19.7368 2.16365 19.7483 2.16365C19.7599 2.16365 19.7693 4.57371 19.7693 7.51926ZM9.08193 9.86255C9.70105 10.1813 10.3956 10.2918 11.0094 10.1691C11.7428 10.0225 12.2283 9.74101 12.9449 9.04713L13.5757 8.43628L16.2418 11.0911L18.908 13.7459H10.4993H2.09071L4.75686 11.0911L7.42301 8.43628L8.05378 9.04713C8.40071 9.38307 8.86339 9.75001 9.08193 9.86255Z"/>
</svg>