<svg id="i_doc-flow" viewBox="0 0 19 19" xmlns="http://www.w3.org/2000/svg">
	<path fill-rule="evenodd" clip-rule="evenodd" d="M5.64668 0.0681287C5.4543 0.119235 5.21739 0.279812 4.967 0.528826C4.65576 0.838278 4.56668 0.984931 4.49891 1.29905C4.44342 1.55628 4.41527 2.91549 4.41527 5.33423V8.98144L3.87531 9.10631C2.05575 9.52731 0.591593 10.9639 0.121268 12.7897C-0.0404227 13.4177 -0.0404227 14.532 0.121268 15.1599C0.48159 16.5586 1.47519 17.8078 2.70318 18.4058C3.92863 19.0026 3.44118 18.9669 10.7378 18.9937C15.4321 19.0109 17.3614 18.9938 17.6584 18.9325C18.002 18.8615 18.1346 18.7835 18.4591 18.4607C18.7814 18.1402 18.8623 18.0051 18.9317 17.6724C18.991 17.3883 19.0097 15.3376 18.9955 10.6605L18.9756 4.05012L16.946 2.03165L14.9163 0.0131708L10.4292 0.00146817C7.471 -0.00623481 5.84144 0.0164298 5.64668 0.0681287ZM14.112 2.82579C14.1417 5.01922 13.9418 4.82042 16.1474 4.84998L17.8212 4.87242V11.2012C17.8212 17.4313 17.8189 17.5323 17.6723 17.6782C17.5265 17.8231 17.424 17.8263 12.8991 17.8263H8.27491L8.73213 17.3301C9.26792 16.7486 9.72395 15.8848 9.90597 15.1067L10.031 14.5721L13.0304 14.5512C16.0055 14.5305 16.0311 14.529 16.1931 14.3678C16.4072 14.1548 16.4072 13.7948 16.1931 13.5818C16.0311 13.4206 16.0055 13.4192 13.0304 13.3984L10.031 13.3775L9.90597 12.8475C9.83715 12.556 9.66496 12.0747 9.52331 11.7781L9.26569 11.2386L12.6477 11.218C16.017 11.1974 16.0303 11.1967 16.1931 11.0348C16.4072 10.8218 16.4072 10.4618 16.1931 10.2488L16.0297 10.0863L12.0769 10.0659L8.12417 10.0454L7.88771 9.86609C7.52314 9.58953 6.72392 9.24215 6.13734 9.1052L5.60691 8.98144V5.21942C5.60691 1.55621 5.61085 1.45355 5.75586 1.30935C5.90117 1.16484 6.0041 1.16121 9.99713 1.16121H14.0894L14.112 2.82579ZM16.1827 2.82772L17.0367 3.67949H16.1629H15.289V2.82772C15.289 2.35925 15.2979 1.97595 15.3088 1.97595C15.3197 1.97595 15.713 2.35925 16.1827 2.82772ZM7.39437 6.81112C7.11292 6.95415 6.98958 7.25849 7.11098 7.51032C7.30231 7.90709 7.24482 7.90258 11.8051 7.88265L16.0297 7.86428L16.1931 7.70178C16.2913 7.60409 16.3565 7.44721 16.3565 7.30878C16.3565 7.17035 16.2913 7.01347 16.1931 6.91578L16.0297 6.75328L11.8051 6.73491C8.49395 6.72047 7.54027 6.73691 7.39437 6.81112ZM6.0134 10.2367C6.65823 10.4037 7.25643 10.7505 7.75484 11.2462C9.27693 12.7599 9.27693 15.1897 7.75484 16.7035C6.23274 18.2172 3.78943 18.2172 2.26734 16.7035C1.05112 15.4939 0.779575 13.6374 1.59607 12.114C2.0521 11.2631 3.02976 10.4937 3.97674 10.2404C4.50941 10.0979 5.47091 10.0962 6.0134 10.2367ZM5.46026 13.5675C4.82087 14.1989 4.26855 14.7155 4.23287 14.7155C4.1972 14.7155 3.97481 14.5322 3.73864 14.3081C3.25081 13.8454 3.02552 13.7948 2.73617 14.0826C2.40192 14.4149 2.47654 14.5939 3.28358 15.3965C3.87382 15.9835 4.05547 16.1228 4.23108 16.1228C4.41415 16.1228 4.68026 15.8922 5.92135 14.6579C7.5247 13.0634 7.58294 12.9705 7.21152 12.6012C6.85426 12.2459 6.72802 12.3156 5.46026 13.5675Z"/>
</svg>