<svg id="i_home" viewBox="0 0 19 20" xmlns="http://www.w3.org/2000/svg">
	<path fill-rule="evenodd" clip-rule="evenodd" d="M9.24811 0.560084C9.16743 0.596453 7.08784 2.63759 4.62681 5.09605L0.152222 9.56601V9.89341C0.152222 10.1537 0.19396 10.2624 0.355632 10.4237C0.630343 10.6978 1.11536 10.7097 1.3933 10.4493L1.58262 10.2718V14.5362V18.8005L1.83203 19.0493L2.08143 19.2981H9.54153H17.0016L17.251 19.0493L17.5004 18.8005V14.5362V10.2718L17.6898 10.4493C17.9677 10.7097 18.4527 10.6978 18.7274 10.4237C18.8892 10.2624 18.9308 10.1537 18.9308 9.89326V9.56572L14.4175 5.06327C10.4589 1.11418 9.87294 0.556718 9.64951 0.527447C9.5094 0.509079 9.3288 0.523788 9.24811 0.560084ZM15.96 13.2424V17.7614H14.5663H13.1726V15.1434C13.1726 12.8413 13.1581 12.5047 13.0529 12.3549C12.8009 11.9959 12.6555 11.9804 9.54153 11.9804C6.42758 11.9804 6.28212 11.9959 6.03015 12.3549C5.92496 12.5047 5.91051 12.8413 5.91051 15.1434V17.7614H4.51678H3.12306V13.243V8.72462L6.332 5.52282L9.54094 2.32102L12.7505 5.52223L15.96 8.72337V13.2424ZM11.6321 15.6393V17.7614H9.54153H7.45094V15.6393V13.5171H9.54153H11.6321V15.6393Z"/>
</svg>