<svg id="i_manager" viewBox="0 0 20 20" xmlns="http://www.w3.org/2000/svg">
	<path fill-rule="evenodd" clip-rule="evenodd" d="M9.07704 0.05586C5.2211 0.466862 2.08325 3.66449 1.75302 7.5195L1.69152 8.238L1.26821 8.36269C0.798848 8.50098 0.443936 8.78953 0.200657 9.23066C0.0656101 9.47557 0.0347144 9.91835 0.00770504 12.0005C-0.00997738 13.3635 0.00381897 14.7062 0.0384066 14.9841C0.110885 15.5669 0.3905 16.0321 0.858113 16.3472C1.16668 16.5553 1.28142 16.5682 2.81523 16.5682C3.71139 16.5682 4.51536 16.541 4.60183 16.5079C4.98744 16.3599 5.0434 15.9947 5.0434 13.6265C5.0434 10.8967 5.01319 10.7634 4.07 9.33183C3.53311 8.51702 3.39214 8.22701 3.3934 7.94051C3.39671 7.23552 3.68468 6.20621 4.13247 5.29878C5.21391 3.10732 7.50913 1.6987 9.99837 1.6987C12.4876 1.6987 14.7828 3.10732 15.8643 5.29878C16.3121 6.20621 16.6 7.23552 16.6033 7.94051C16.6046 8.22701 16.4636 8.51702 15.9267 9.33183C14.9793 10.7699 14.9533 10.8864 14.9533 13.7109V16.0662L14.3947 16.5632C13.699 17.1821 12.3046 17.8877 11.4071 18.0751C11.0292 18.1539 10.1983 18.2178 9.53688 18.2188L8.34671 18.2204V19.1103V20L9.73119 19.9366C11.3455 19.8627 12.1195 19.7149 13.1593 19.2818C14.2056 18.8461 15.1873 18.1629 16.0062 17.3005L16.7016 16.5682H17.7562C18.9355 16.5682 19.2534 16.4427 19.681 15.8079C19.982 15.361 20.0257 14.8219 19.989 12.0005C19.962 9.91835 19.9311 9.47557 19.7961 9.23066C19.5528 8.78953 19.1979 8.50098 18.7285 8.36269L18.3052 8.238L18.2437 7.5195C18.0024 4.70167 16.2492 2.16014 13.6417 0.848125C12.6212 0.334591 11.8512 0.144008 10.2413 0.00639198C10.0275 -0.0118791 9.50365 0.0103767 9.07704 0.05586ZM9.46401 2.92024C9.35714 2.94434 9.02923 3.01266 8.73534 3.07204C8.07176 3.20616 7.06328 3.70794 6.54932 4.15976L6.1607 4.50137L6.58955 4.94211L7.0183 5.38295L7.38273 5.09421C8.26063 4.39874 9.53765 4.04994 10.5871 4.21894C11.2741 4.32964 12.098 4.68544 12.614 5.09421L12.9784 5.38295L13.4072 4.94211L13.836 4.50137L13.4474 4.15976C12.9859 3.754 11.9697 3.22822 11.3586 3.07885C10.8358 2.95114 9.73595 2.85911 9.46401 2.92024ZM2.83679 10.5327C3.03917 10.847 3.24689 11.2508 3.29829 11.4302C3.34968 11.6095 3.39175 12.4672 3.39175 13.3361V14.9161H2.56592H1.7401V12.4378V9.95956L2.10443 9.96043C2.44205 9.96121 2.49568 10.0031 2.83679 10.5327ZM18.2566 12.4378V14.9161H17.4308H16.605V13.2702C16.605 12.3454 16.6502 11.5045 16.7082 11.3508C16.7649 11.2003 16.9726 10.8261 17.1697 10.5193C17.5009 10.0035 17.5556 9.96121 17.8923 9.96043L18.2566 9.95956V12.4378Z"/>
</svg>