<svg id="i_pin1" viewBox="0 0 13 13" xmlns="http://www.w3.org/2000/svg">
	<path fill-rule="evenodd" clip-rule="evenodd" d="M7.44043 0.071596C7.22689 0.166193 6.53386 0.885514 6.34621 1.20725C5.98985 1.81841 5.94122 2.63542 6.22103 3.31161C6.25068 3.38331 5.98127 3.59617 4.95189 4.31444L3.64509 5.22627L3.38498 5.09598C2.97009 4.8882 2.45822 4.81589 1.99154 4.89907C1.39305 5.00569 1.03309 5.21496 0.481553 5.77697C0.0262214 6.24091 0 6.28062 0 6.50655C0 6.74495 0.00331912 6.74881 1.33917 8.08486L2.67833 9.42421L1.65034 10.4593C0.538919 11.5783 0.476851 11.6742 0.628702 12.0365C0.764455 12.3605 1.16187 12.495 1.48255 12.3254C1.5647 12.282 2.06711 11.8105 2.59895 11.2778L3.56604 10.3093L4.89469 11.6288C5.75308 12.4813 6.27762 12.9617 6.37658 12.986C6.61722 13.0451 6.81443 12.9269 7.29615 12.4348C7.61678 12.1073 7.7948 11.8701 7.92397 11.5981C8.09369 11.2407 8.1042 11.183 8.10348 10.6118C8.10282 10.0645 8.08749 9.97199 7.94754 9.66856L7.79231 9.33204L8.65922 8.09655C9.13601 7.417 9.54731 6.8386 9.57314 6.81125C9.60091 6.78196 9.74795 6.80154 9.93117 6.85901C10.1646 6.93221 10.3687 6.95102 10.7498 6.9343C11.4747 6.90259 11.8522 6.71781 12.5069 6.07427C12.9545 5.63427 13 5.5704 13 5.38137C13 5.26686 12.9644 5.10619 12.9208 5.02422C12.7991 4.79509 8.0699 0.117929 7.89321 0.0519045C7.697 -0.021346 7.64522 -0.0190846 7.44043 0.071596ZM11.5064 5.35683C11.5064 5.37933 11.4024 5.46637 11.2753 5.55021C11.074 5.68303 10.9903 5.70267 10.6253 5.70267C10.2409 5.70267 10.1846 5.68756 9.94207 5.51971C9.58664 5.27365 9.37189 5.24386 9.14127 5.40862C9.0392 5.48149 8.41012 6.32348 7.68914 7.35213C6.2582 9.39366 6.26235 9.3845 6.59006 9.79058C6.68521 9.90856 6.79723 10.0849 6.839 10.1825C6.99826 10.5549 6.87943 11.1781 6.60245 11.4234C6.49917 11.5148 6.41193 11.4344 3.98077 9.00683L1.46596 6.49574L1.65128 6.33876C1.87549 6.1489 2.2662 6.04189 2.55657 6.09076C2.67418 6.11062 2.90011 6.2141 3.0586 6.32078C3.42486 6.56728 3.56908 6.62156 3.74262 6.57815C3.91012 6.53622 7.38771 4.1285 7.56489 3.93175C7.75204 3.72391 7.72997 3.44509 7.49785 3.08584C7.17987 2.59383 7.17351 2.20325 7.47566 1.72823L7.64306 1.46506L9.57469 3.39048C10.6372 4.44952 11.5064 5.33438 11.5064 5.35683Z"/>
</svg>