<svg id="i_scroll" viewBox="0 0 15 17" xmlns="http://www.w3.org/2000/svg">
	<path d="M13.8751 3.18734H9.62506M13.8751 3.18734C13.8751 2.6915 12.4626 1.765 12.1042 1.4165M13.8751 3.18734C13.8751 3.68317 12.4626 4.60967 12.1042 4.95817M3.15869 8.97513L4.67027 10.2707V3.36442C4.67027 3.03566 4.80087 2.72037 5.03334 2.4879C5.2658 2.25544 5.5811 2.12484 5.90986 2.12484C6.23861 2.12484 6.55391 2.25544 6.78637 2.4879C7.01884 2.72037 7.14944 3.03566 7.14944 3.36442V7.08317L9.26594 7.42175C10.6323 7.62646 11.3151 7.72917 11.7961 8.01675C12.5909 8.49346 13.1667 9.20817 13.1667 10.2523C13.1667 10.979 12.9868 11.467 12.5505 12.7775C12.2728 13.609 12.1347 14.0241 11.9087 14.3535C11.5367 14.8954 10.9878 15.291 10.3561 15.4727C9.97215 15.5832 9.5344 15.5832 8.65748 15.5832H7.91373C6.74923 15.5832 6.16627 15.5832 5.64706 15.3693C5.55416 15.3309 5.46337 15.2876 5.37506 15.2396C4.88206 14.9719 4.51444 14.52 3.7799 13.6154L1.40061 10.6872C1.20835 10.4482 1.11211 10.1461 1.13068 9.83997C1.14926 9.53382 1.28131 9.2456 1.50105 9.03161C1.72079 8.81763 2.01241 8.69327 2.31895 8.68282C2.62548 8.67238 2.9249 8.7766 3.15869 8.97513Z" stroke-linecap="round" stroke-linejoin="round"/>
</svg>