<svg id="i_shipment" viewBox="0 0 19 21" xmlns="http://www.w3.org/2000/svg">
	<path fill-rule="evenodd" clip-rule="evenodd" d="M4.7586 1.96571C2.25604 3.04456 0.163811 3.99123 0.109116 4.06942C-0.0363719 4.27733 -0.0363719 16.7183 0.109116 16.9263C0.218506 17.0828 9.25617 21 9.50767 21C9.73924 21 18.6976 17.1317 18.8606 16.9614C18.9918 16.8242 19 16.4415 19 10.4979C19 4.55424 18.9918 4.17157 18.8606 4.03438C18.6838 3.84961 9.72575 -0.00573694 9.4864 6.41051e-06C9.38863 0.00230375 7.26116 0.886862 4.7586 1.96571ZM10.5436 1.81811C11.0945 2.05326 11.5451 2.26962 11.5451 2.29891C11.5451 2.3282 9.98753 3.06244 8.08379 3.93051L4.62253 5.50878L3.51278 5.03734C2.9025 4.77798 2.37901 4.54365 2.34966 4.51658C2.3025 4.47318 9.26754 1.42165 9.46459 1.39933C9.5072 1.39449 9.99271 1.58296 10.5436 1.81811ZM15.1549 3.80129C16.5899 4.42099 16.7423 4.50476 16.5674 4.57729C16.4595 4.62201 14.8268 5.32327 12.9392 6.13555L9.5072 7.61257L8.0739 6.99516C7.28557 6.65565 6.55366 6.3428 6.44733 6.29997C6.27885 6.23212 6.70213 6.01723 9.74317 4.62685C11.8246 3.67518 13.2956 3.04669 13.3892 3.06909C13.4755 3.08968 14.2701 3.41919 15.1549 3.80129ZM2.72483 6.14293L4.05102 6.71087L4.09394 8.62488C4.11748 9.67756 4.14401 10.5472 4.1528 10.5573C4.21714 10.6315 4.65627 10.8261 4.75939 10.8261C4.82962 10.8261 4.99025 10.7182 5.11644 10.5862L5.34581 10.3464V8.82221C5.34581 7.98392 5.36308 7.298 5.38411 7.298C5.44006 7.298 8.80527 8.75452 8.84482 8.79579C8.86318 8.81507 8.86914 11.1936 8.858 14.0816L8.83783 19.3325L5.07116 17.7147L1.30449 16.0969L1.28432 10.8359C1.27317 7.94241 1.29436 5.575 1.3314 5.575C1.36836 5.575 1.99543 5.83058 2.72483 6.14293ZM17.7254 10.8383L17.7052 16.1016L13.9385 17.7173L10.1719 19.333L10.1517 14.0819C10.1405 11.1938 10.1467 8.81482 10.1653 8.79538C10.2255 8.73245 17.5449 5.58829 17.6469 5.58156C17.7254 5.57631 17.7415 6.65204 17.7254 10.8383Z"/>
</svg>