<svg id="i_speed-feedback" viewBox="0 0 20 20" xmlns="http://www.w3.org/2000/svg">
	<path fill-rule="evenodd" clip-rule="evenodd" d="M8.22559 0.124784C6.21828 0.491627 4.41599 1.44644 2.93768 2.92632C1.00365 4.86221 0 7.27635 0 9.99211C0 12.7079 1.00365 15.122 2.93768 17.0579C4.4317 18.5534 6.05977 19.419 8.14749 19.8276C9.33572 20.0602 10.2055 20.0572 10.4426 19.8199C10.6674 19.5949 10.6732 19.1572 10.4542 18.938C10.3332 18.8169 10.0938 18.7543 9.58402 18.7106C8.18007 18.5901 7.18953 18.3227 6.06923 17.7621C3.66671 16.5598 1.98294 14.3125 1.41913 11.5556C1.27802 10.8657 1.27802 9.11852 1.41913 8.42861C2.16323 4.79011 4.7996 2.15109 8.43444 1.40623C8.72898 1.34584 9.43185 1.29652 9.99637 1.29652C11.4761 1.29652 12.6061 1.56285 13.9235 2.22211C16.7122 3.61766 18.4205 6.2456 18.7061 9.57935C18.7497 10.0897 18.8123 10.3293 18.9333 10.4504C19.1522 10.6696 19.5895 10.6638 19.8142 10.4388C20.2896 9.96299 19.7999 7.17441 18.9434 5.48028C18.0394 3.69217 16.29 1.94095 14.5037 1.03608C13.7897 0.674424 12.5343 0.26139 11.7136 0.118173C10.7961 -0.0420196 9.12071 -0.0388928 8.22559 0.124784ZM9.81787 2.55152C9.74423 2.57815 9.61374 2.66124 9.52779 2.73611C9.38383 2.86172 9.3716 3.15754 9.3716 6.52158V10.1708H7.44864C5.52585 10.1708 5.52559 10.1708 5.30656 10.3901C5.02728 10.6696 5.02728 11.0121 5.30656 11.2916L5.52558 11.5109H7.83823C10.0427 11.5109 10.1618 11.5023 10.386 11.3257L10.6211 11.1406V7.00644C10.6211 3.18112 10.6095 2.86208 10.465 2.73503C10.2723 2.56582 9.99566 2.48729 9.81787 2.55152ZM14.102 10.3102C10.2999 11.1305 8.89829 15.8072 11.6393 18.5271C12.7356 19.6148 13.8599 20.0524 15.3516 19.972C16.4278 19.9139 17.1255 19.6737 17.9643 19.0725C18.7282 18.5248 19.4305 17.6033 19.7243 16.763C19.9991 15.9766 20.0609 14.6925 19.8609 13.9232C19.39 12.1117 17.9059 10.6874 16.0876 10.3016C15.3494 10.1451 14.8576 10.1472 14.102 10.3102ZM17.516 13.2806C17.877 13.5909 17.7379 13.8783 16.3276 15.7324C14.6655 17.9179 14.8672 17.8573 13.2753 16.6485C12.0482 15.7168 11.9023 15.5038 12.2085 15.0912C12.5167 14.6762 12.8143 14.7361 13.7044 15.3928C14.1408 15.7147 14.5192 15.9767 14.5453 15.9748C14.5715 15.973 15.0535 15.3503 15.6163 14.5911C16.7889 13.0091 17.0171 12.8517 17.516 13.2806Z"/>
</svg>