<svg id="i_stage" viewBox="0 0 19 19" xmlns="http://www.w3.org/2000/svg">
	<path fill-rule="evenodd" clip-rule="evenodd" d="M1.79128 0.097501C0.956853 0.330694 0.251696 1.08961 0.0741443 1.94523C-0.0691229 2.63594 0.00863879 4.73666 0.192816 5.15059C0.406723 5.63131 1.01913 6.23882 1.49729 6.44467C1.88867 6.61314 2.0244 6.62375 3.46113 6.59856C5.14514 6.56906 5.2345 6.54726 5.83473 6.01997C6.27778 5.63073 6.53682 5.12714 6.60307 4.52651L6.6608 4.00261L9.55927 3.9775C13.1594 3.94626 13.5069 3.97253 14.0794 4.31983C14.5821 4.62479 14.9359 5.18399 15.0123 5.79382L15.0602 6.17618L14.5661 6.22101C13.3848 6.32816 12.4163 7.35846 12.4163 8.50785V8.85043H8.95324C5.14051 8.85043 5.06357 8.8588 4.22169 9.36579C3.37236 9.87726 2.78421 10.8485 2.67175 11.9256L2.62074 12.4138L2.23922 12.4146C1.72106 12.4157 1.10708 12.7184 0.681001 13.1829C0.0796927 13.8383 0.0397766 13.9937 0.0376234 15.6871C0.0354703 17.3983 0.107021 17.6644 0.739633 18.2975C1.37225 18.9305 1.63824 19.0021 3.34826 19C5.04055 18.9978 5.19583 18.9579 5.8508 18.3561C6.31969 17.9254 6.61748 17.3161 6.61856 16.7851L6.61939 16.3915H8.58306H10.5468L10.1565 16.7879C9.83537 17.1143 9.7663 17.2378 9.7663 17.4864C9.7663 17.851 10.0668 18.1317 10.4571 18.1317C10.6728 18.1317 10.8734 17.9698 11.771 17.0717C13.1865 15.6552 13.1887 15.7856 11.7262 14.3365C10.5188 13.1401 10.3571 13.0581 9.96961 13.4459C9.63189 13.7838 9.6887 14.161 10.1517 14.6564L10.5372 15.0687L8.59896 15.0465L6.6608 15.0242L6.60307 14.5003C6.47935 13.3776 5.65138 12.5538 4.52123 12.4285L4.01076 12.3719L4.03635 11.9992C4.08902 11.2302 4.70648 10.4672 5.44137 10.263C5.63027 10.2105 7.0424 10.1771 9.08309 10.1768L12.4163 10.1763V10.5189C12.4163 11.322 12.8974 12.1008 13.6585 12.5299L14.114 12.7867H15.6875C17.235 12.7867 17.2679 12.7831 17.6824 12.5641C18.1753 12.3039 18.581 11.8698 18.8256 11.3407C18.9819 11.0027 19 10.8132 19 9.51338C19 8.20687 18.9824 8.02523 18.823 7.68016C18.442 6.8557 17.7074 6.31133 16.8571 6.22358L16.4127 6.17767L16.3629 5.69993C16.2302 4.43013 15.4177 3.34513 14.2382 2.86308C13.794 2.68152 13.6941 2.6763 10.2011 2.65201L6.61939 2.62715L6.61856 2.23759C6.61699 1.47387 5.95034 0.536623 5.155 0.180121C4.7295 -0.0106427 2.38423 -0.0683195 1.79128 0.097501ZM4.76553 1.51008C5.23384 1.78827 5.29437 1.99263 5.29437 3.29441C5.29437 4.60722 5.22564 4.84837 4.77273 5.12465C4.54152 5.26578 4.35154 5.2865 3.2849 5.28675L2.06225 5.28708L1.76917 5.01775C1.41075 4.68827 1.3238 4.35414 1.32173 3.29823C1.31842 1.56942 1.62673 1.2875 3.47248 1.33191C4.30003 1.3518 4.5594 1.38752 4.76553 1.51008ZM17.048 7.66972C17.6159 7.95951 17.675 8.13304 17.675 9.51338C17.675 10.8937 17.6159 11.0673 17.048 11.357C16.673 11.5484 14.8004 11.5664 14.3616 11.3829C13.8355 11.163 13.7419 10.8807 13.7419 9.51338C13.7419 7.67718 13.8831 7.53315 15.6875 7.52793C16.5534 7.52536 16.8196 7.55312 17.048 7.66972ZM4.72246 13.8681C5.21388 14.1223 5.29371 14.3866 5.29404 15.759L5.29437 16.9911L4.98109 17.3046C4.61025 17.6756 4.18509 17.7588 2.95291 17.7014C1.54375 17.6357 1.36073 17.4042 1.36073 15.6871C1.36073 14.4175 1.43576 14.1603 1.8885 13.8792C2.1974 13.6874 4.35684 13.6789 4.72246 13.8681Z"/>
</svg>