<svg id="i_term" viewBox="0 0 20 17" xmlns="http://www.w3.org/2000/svg">
	<path fill-rule="evenodd" clip-rule="evenodd" d="M7.36594 0.0569431C7.20068 0.121292 7.03566 0.509199 7.03566 0.833436V1.13932H5.48424C4.03293 1.13932 3.91953 1.14944 3.72702 1.29589L3.52123 1.45238V3.55369C3.52123 4.70933 3.48577 6.00689 3.44243 6.43709C3.15635 9.27781 2.09609 11.8177 0.523188 13.4301C-0.0574735 14.0254 -0.132214 14.2794 0.187521 14.57C0.360822 14.7274 0.433688 14.7342 1.94474 14.7342H3.52123V15.6817C3.52123 16.587 3.52974 16.6375 3.71296 16.8146L3.90462 17H11.7606H19.6166L19.8083 16.8146L20 16.6292V9.06966V1.51008L19.8083 1.32474C19.6176 1.14023 19.6091 1.13932 18.0511 1.13932H16.4856V0.758287C16.4856 0.303615 16.2453 0.00641558 15.878 0.00641558C15.5221 0.00641558 15.3141 0.279975 15.3141 0.747638V1.13932H13.8302H12.3464V0.758287C12.3464 0.303615 12.1061 0.00641558 11.7387 0.00641558C11.3829 0.00641558 11.1749 0.279975 11.1749 0.747638V1.13932H9.73006H8.28524V0.833436C8.28524 0.199538 7.87975 -0.142977 7.36594 0.0569431ZM7.03566 2.57811C7.03566 3.16851 7.36852 3.49237 7.85429 3.37447C8.09999 3.3148 8.28524 2.97244 8.28524 2.57811V2.27223H9.73006H11.1749V2.65326C11.1749 2.95718 11.2137 3.07191 11.3666 3.21971C11.472 3.32168 11.6493 3.40513 11.7606 3.40513C11.8719 3.40513 12.0492 3.32168 12.1546 3.21971C12.3075 3.07191 12.3464 2.95718 12.3464 2.65326V2.27223H13.8302H15.3141V2.65326C15.3141 2.95718 15.3529 3.07191 15.5058 3.21971C15.7501 3.45604 16.0495 3.45604 16.2938 3.21971C16.4468 3.07191 16.4856 2.95718 16.4856 2.65326V2.27223H17.657H18.8285V3.40513V4.53804H11.7606H4.69271V3.40513V2.27223H5.86418H7.03566V2.57811ZM18.7834 6.14299C18.5331 8.90985 17.6666 11.2414 16.2561 12.9431L15.7419 13.5635L8.85364 13.5828L1.96535 13.6021L2.37607 13.0087C3.67485 11.1322 4.43818 8.88787 4.65967 6.29404L4.71286 5.67094H11.7695H18.8261L18.7834 6.14299ZM18.8285 13.4502V15.8671H11.7606H4.69271V15.3006V14.7342H10.3787H16.0647L16.3006 14.5643C16.9099 14.1254 18.1013 12.527 18.5612 11.5315C18.6868 11.2597 18.7983 11.0365 18.809 11.0354C18.8197 11.0343 18.8285 12.121 18.8285 13.4502Z"/>
</svg>