<svg id="line-2" width="988" height="151" viewBox="0 0 988 151" fill="none" xmlns="http://www.w3.org/2000/svg">
<path d="M740.736 78.1339C655.255 69.0053 277.207 108.239 198.241 149.026C198.241 150.969 199.132 151.085 200.215 150.969C209.296 149.998 365.132 120.558 477.977 110.57C514.54 107.333 554.453 104.887 592.083 100.276C629.713 95.6641 740.736 78.1339 740.736 78.1339Z" fill="#1F1D1C"/>
<path d="M987.701 20.0599C987.701 20.0599 988.49 20.4485 987.503 22.3908C986.974 22.6511 984.937 23.9444 979.804 26.2751C972.302 30.9366 673.31 20.4832 500.483 38.3172L2.4063 84.5434C-2.19914 84.9234 1.22181 81.2417 1.22181 81.2417C65.1644 61.3428 130.726 40.2597 304.648 25.693C423.886 12.1034 645.8 -0.957092 691.185 0.0552668C758.898 0.0552668 903.099 9.50347 987.701 20.0599Z" fill="#1F1D1C"/>
</svg>
