<svg id="line-7" width="979" height="194" viewBox="0 0 979 194" fill="none" xmlns="http://www.w3.org/2000/svg">
<path d="M17.9455 54.8983C11.5329 46.8382 26.9211 27.3449 17.9455 20.1271C12.5389 15.7794 4.46454 29.5016 4.46454 29.5016C-17.8839 72.1767 46.6658 87.9755 131.264 78.5929C290.3 60.9544 627.731 20.5025 930.156 23.6412C930.156 23.6412 233.596 77.3216 264.51 168.013C282.017 219.371 602.204 128.376 536.864 166.645C518.61 177.336 503.868 177.369 483.331 186.767C432.898 209.845 606.146 171.724 610.716 155.705C623.592 110.577 294.012 175.436 286.588 165.864C251.419 109.173 979 46.3038 979 29.5014C979 -64.0824 52.9178 98.8552 17.9455 54.8983Z" fill="#1F1D1C"/>
</svg>
