<svg id="line-8" width="981" height="107" viewBox="0 0 981 107" fill="none" xmlns="http://www.w3.org/2000/svg">
<path d="M5.54297 53.9251C2.80945 53.9263 3.75607 53.8594 2.6142 53.9251C0.271097 53.9251 0.661742 104.991 2.6142 104.991C6.35863 105.71 8.93563 106.848 12.3768 104.991C149.053 31.231 142.61 44.3397 154.325 97.3614C155.106 98.9254 163.697 99.1235 166.821 98.5353C192.008 74.0788 253.122 46.1018 267.18 94.8179C270.499 97.3614 278.7 96.5776 278.7 96.5776C376.446 55.4184 421.371 42.4474 429.239 93.2515C432.949 95.8913 438.025 93.2515 438.025 93.2515C509.455 53.7961 544.487 39.9717 564.939 84.8384C570.015 86.5 573.139 84.8384 573.139 84.8384C627.94 45.2967 642.451 52.6613 657.879 84.8384C660.026 87.2827 669.984 84.8384 669.984 84.8384C739.776 53.3149 757.057 55.6115 760.386 84.8384C766.438 88.4566 771.515 84.8384 771.515 84.8384C793.921 66.1074 807.822 59.2158 836.729 58.0341C836.729 58.0341 843.563 71.2392 847.858 76.8167C850.343 80.0435 861.276 77.9622 862.307 77.4049C874.589 70.766 934.457 41.6532 942.36 52.3614C946.483 57.9475 945.289 69.1875 947.241 69.1875C949.194 69.1875 958.541 69.6664 960.323 69.1875C968.146 65.6189 972.173 63.4144 978.872 59.2092C981.305 52.6453 979.074 8.87014 978.884 5.25152C978.878 5.11977 978.75 5.05938 978.627 5.10674C970.69 8.15964 958.357 16.565 957.004 17.3396C955.637 18.1222 951.537 5.60056 953.099 2.07874C954.37 -0.787375 896.086 0.51454 857.816 25.5559C856.059 26.7056 851.067 14.795 846.882 9.12111C844.398 5.7543 822.587 6.38311 802.364 11.866C789.673 15.3069 776.396 23.9906 770.148 30.6428C768.196 22.2298 765.267 14.9907 759.8 12.6428C739.689 7.36023 692.633 11.0785 666.079 31.8167C658.66 15.7733 654.034 9.83036 645.968 8.7298C600.084 2.46893 577.435 21.6437 572.163 28.6872C568.063 19.6881 563.377 14.4046 554.005 9.51331C525.107 2.27418 472.39 7.55768 438.025 36.9046C436.754 23.2225 429.239 16.0061 424.358 14.0133C387.455 -1.05191 314.236 19.8828 275.381 41.9915C270.695 35.1437 265.618 24.8987 257.808 21.8394C236.33 13.4263 199.931 17.4586 163.892 44.7295C161.354 30.8386 155.925 5.88528 149.053 3.44714C112.15 -9.64565 8.2765 53.924 5.54297 53.9251Z" fill="#1F1D1C" stroke="#1F1D1C" stroke-width="0.39057"/>
</svg>
