<svg id="logo-design" width="125" height="105" viewBox="0 0 125 105" fill="none" xmlns="http://www.w3.org/2000/svg">
<g id="Frame 22">
<path id="image 2 (Traced)" fill-rule="evenodd" clip-rule="evenodd" d="M41.981 16.3639C41.3177 16.587 40.2475 17.1516 39.6027 17.619C32.4268 22.8203 29.1017 24.8714 23.2553 27.7019C15.627 31.395 7.99109 35.5206 2.97366 38.6598C1.07762 39.8461 0.758134 40.1623 0.363071 41.2441C-0.987277 44.9421 1.59318 48.8439 5.38843 48.8433C7.10636 48.8431 9.17046 47.8215 12.137 45.5035C15.8448 42.6061 21.6389 38.6294 23.8367 37.4736C25.8096 36.4363 27.2921 36.0916 27.9509 36.5175C28.449 36.8395 28.2965 38.3779 27.6145 39.9102C26.7327 41.8911 17.6029 57.4266 16.0398 59.6061C13.9546 62.5137 13.1211 64.5546 13.0064 67.0341C12.9179 68.9514 12.98 69.2908 13.6456 70.5224C14.723 72.5151 16.1529 73.2517 18.6406 73.0953C20.9431 72.9507 22.9083 72.0483 26.4869 69.4928C36.0921 62.6337 43.7928 60.3292 48.6043 62.8742C51.541 64.4275 52.4807 67.0764 52.2114 73.0427C51.8761 80.4759 49.6323 86.1167 45.1101 90.8977C41.6407 94.565 38.7441 96.2671 33.5613 97.6827C26.9678 99.4839 15.4394 98.3994 10.8157 95.5429C6.10271 92.6314 2.55111 92.449 0.716117 95.0244C-0.789086 97.1368 0.272695 100.318 3.66284 103.853C5.44709 105.713 5.94786 106.061 8.30528 107.079C17.2472 110.942 26.369 111.709 36.9475 109.488C39.7906 108.891 40.6703 108.562 43.6395 106.983C56.5117 100.137 64.7969 90.5519 67.5095 79.3673C68.6193 74.7914 69.0276 70.9657 68.8794 66.5324C68.7274 61.9925 68.1976 59.5882 66.6863 56.58C63.3834 50.0058 58.0076 47.1905 48.7365 47.1795C45.2789 47.1753 39.6331 47.7096 38.2373 48.1728C37.5455 48.4025 37.6528 47.8447 38.7188 45.6652C39.937 43.1738 43.1184 38.1333 47.5013 31.7493C51.2844 26.2387 51.9776 24.6876 51.6782 22.4019C51.3825 20.146 49.762 17.8423 47.6794 16.7177C46.3209 15.9841 43.6115 15.8161 41.981 16.3639Z" fill="#E9E8E8"/>
<path id="image 2 (Traced)_2" fill-rule="evenodd" clip-rule="evenodd" d="M111.762 0.222509C102.426 1.15532 91.2014 5.37189 80.6592 11.9068C75.3751 15.1823 71.5246 18.9074 69.9449 22.2719C69.1297 24.0079 69.0847 24.2649 69.0913 27.1526C69.0971 29.6948 69.1862 30.3582 69.628 31.1492C70.601 32.8921 73.5895 33.9117 77.7388 33.9164L79.5226 33.9186V37.8046V41.6906L77.5779 43.6778C76.0566 45.2325 75.5101 46.0133 75.0675 47.2648C74.3846 49.1954 74.3252 51.7967 74.9224 53.6295C75.3928 55.0736 77.2098 57.3436 78.6302 58.2617L79.5643 58.8656L79.5046 81.1477C79.4454 103.321 79.4478 103.438 80.0125 105.079C81.213 108.569 82.8741 109.603 87.3181 109.629C90.972 109.65 93.3944 108.815 94.6348 107.109C95.745 105.581 96.1707 104.486 96.1707 103.159C96.1707 101.519 95.6155 100.168 94.2409 98.462L93.1318 97.0859L93.1352 84.9185C93.1384 74.903 93.2227 72.0463 93.6127 68.7653C93.8733 66.5733 94.2028 64.552 94.345 64.274C94.6692 63.6408 95.5883 63.6247 96.4421 64.2372C97.9412 65.3126 105.227 71.8738 108.181 74.8091C115.084 81.6671 119.345 86.7736 123.082 92.6676C125.53 96.5287 126.97 99.4833 128.663 104.121C131.297 111.34 134.724 115.01 138.82 115C139.8 114.997 140.761 114.817 141.269 114.539C142.492 113.87 143.649 112.257 144.269 110.354C146.911 102.257 143.973 93.0399 135.014 81.3191C129.219 73.7372 116.535 61.3846 107.137 54.1709C103.376 51.2843 101.124 48.8574 101.24 47.8159C101.317 47.1266 101.639 46.926 105.023 45.4644C115.656 40.8725 126.436 34.156 130.528 29.5732C134.418 25.216 137.213 20.6755 138.361 16.8458C138.936 14.9258 139.026 14.1958 138.923 12.2855C138.778 9.58404 138.153 8.01968 136.406 5.98796C134.934 4.27518 133.621 3.45873 130.653 2.40929C124.802 0.340803 118.214 -0.421751 111.762 0.222509ZM123.372 17.2502C123.813 15.8533 123.438 15.2442 122.013 15.0402C119.756 14.7174 114.756 14.614 112.794 14.8495C107.161 15.5258 101.638 17.8248 96.5845 21.5961L94.8494 22.891V29.5105C94.8494 33.1511 94.9099 36.1297 94.9842 36.1297C95.2662 36.1297 105.325 30.7788 109.052 28.6454C116.971 24.114 122.626 19.6141 123.372 17.2502Z" fill="#E9E8E8"/>
</g>
</svg>
