<svg id="logo-dark" width="72" height="56" viewBox="0 0 72 56" fill="none" xmlns="http://www.w3.org/2000/svg">
<g id="Frame 22">
<path id="image 2 (Traced)" fill-rule="evenodd" clip-rule="evenodd" d="M20.699 7.96845C20.3719 8.07706 19.8443 8.35202 19.5263 8.57961C15.9882 11.1124 14.3488 12.1112 11.4662 13.4895C7.70499 15.2879 3.94005 17.2969 1.46618 18.8256C0.531326 19.4032 0.373802 19.5572 0.179014 20.084C-0.486782 21.8848 0.785528 23.7848 2.65679 23.7845C3.50383 23.7844 4.52155 23.2869 5.98422 22.1581C7.81236 20.7472 10.6692 18.8108 11.7528 18.2479C12.7256 17.7428 13.4565 17.575 13.7813 17.7824C14.0269 17.9392 13.9518 18.6883 13.6155 19.4345C13.1807 20.3991 8.6792 27.9642 7.90851 29.0255C6.88037 30.4414 6.46943 31.4352 6.41288 32.6426C6.36923 33.5763 6.39985 33.7415 6.72806 34.3413C7.25926 35.3116 7.96428 35.6703 9.19085 35.5941C10.3261 35.5238 11.2951 35.0843 13.0595 33.8399C17.7954 30.4998 21.5923 29.3776 23.9646 30.6169C25.4126 31.3733 25.8759 32.6632 25.7431 35.5686C25.5778 39.1882 24.4715 41.935 22.2418 44.2631C20.5312 46.049 19.103 46.8778 16.5476 47.5672C13.2966 48.4443 7.61249 47.9162 5.33275 46.5252C3.00898 45.1074 1.25784 45.0186 0.353085 46.2727C-0.389063 47.3014 0.134454 48.8506 1.80598 50.5717C2.68572 51.4775 2.93262 51.647 4.09497 52.1429C8.50382 54.0237 13.0014 54.3971 18.2172 53.316C19.619 53.0253 20.0527 52.865 21.5167 52.0961C27.8634 48.7625 31.9485 44.0948 33.2859 38.6484C33.8331 36.4201 34.0345 34.5571 33.9614 32.3983C33.8864 30.1876 33.6252 29.0168 32.8801 27.5519C31.2515 24.3506 28.601 22.9797 24.0298 22.9743C22.325 22.9723 19.5413 23.2324 18.8531 23.458C18.512 23.5698 18.5649 23.2982 19.0905 22.2369C19.6912 21.0237 21.2598 18.5692 23.4208 15.4605C25.2861 12.777 25.6278 12.0217 25.4802 10.9087C25.3344 9.81016 24.5354 8.68836 23.5086 8.14072C22.8388 7.78352 21.5029 7.70169 20.699 7.96845Z" fill="#1F1D1C"/>
<path id="image 2 (Traced)_2" fill-rule="evenodd" clip-rule="evenodd" d="M55.1046 0.108352C50.5016 0.562589 44.9672 2.61588 39.7693 5.79809C37.1639 7.39311 35.2654 9.2071 34.4865 10.8454C34.0846 11.6908 34.0624 11.816 34.0657 13.2221C34.0686 14.4601 34.1125 14.7831 34.3303 15.1683C34.81 16.017 36.2835 16.5135 38.3294 16.5158L39.2089 16.5169V18.4092V20.3015L38.25 21.2692C37.4999 22.0263 37.2305 22.4065 37.0123 23.0159C36.6756 23.956 36.6463 25.2228 36.9407 26.1152C37.1727 26.8184 38.0685 27.9238 38.7689 28.3709L39.2295 28.665L39.2 39.5154C39.1708 50.3127 39.172 50.3699 39.4504 51.1691C40.0424 52.8684 40.8614 53.372 43.0525 53.3844C44.8541 53.3946 46.0485 52.9883 46.6601 52.1572C47.2074 51.4135 47.4173 50.8804 47.4173 50.2338C47.4173 49.4352 47.1436 48.7773 46.4658 47.9467L45.9189 47.2766L45.9206 41.3516C45.9222 36.4745 45.9638 35.0834 46.1561 33.4857C46.2846 32.4183 46.447 31.434 46.5171 31.2986C46.677 30.9903 47.1302 30.9825 47.5511 31.2807C48.2903 31.8044 51.8825 34.9994 53.3391 36.4288C56.7426 39.7683 58.8434 42.255 60.6861 45.1251C61.8933 47.0053 62.6031 48.444 63.4376 50.7024C64.7366 54.2179 66.426 56.0048 68.4457 56C68.9292 55.9988 69.4029 55.9108 69.6531 55.7756C70.2561 55.4499 70.8265 54.6642 71.1326 53.7378C72.435 49.7949 70.9863 45.3064 66.5692 39.5989C63.7118 35.9068 57.4578 29.8916 52.8242 26.3789C50.97 24.9732 49.8597 23.7914 49.9167 23.2843C49.9545 22.9486 50.1137 22.8509 51.7821 22.1392C57.0247 19.9031 62.3396 16.6325 64.3572 14.4009C66.2754 12.2791 67.6532 10.0681 68.2194 8.2032C68.5031 7.26821 68.5474 6.91276 68.4968 5.98248C68.4251 4.66701 68.1168 3.90524 67.2557 2.91587C66.5297 2.08183 65.8826 1.68425 64.4191 1.17322C61.5342 0.165956 58.2857 -0.205374 55.1046 0.108352ZM60.8293 8.4001C61.0466 7.71989 60.8619 7.42325 60.1588 7.32393C59.046 7.16673 56.5811 7.11639 55.6135 7.23106C52.8362 7.5604 50.1128 8.67991 47.6214 10.5164L46.7659 11.1469V14.3703C46.7659 16.1431 46.7957 17.5936 46.8323 17.5936C46.9713 17.5936 51.9307 14.988 53.7687 13.9491C57.6732 11.7425 60.4615 9.55124 60.8293 8.4001Z" fill="#A2342E"/>
</g>
</svg>
