<svg id="play-circle" width="65" height="64" viewBox="0 0 65 64" fill="none" xmlns="http://www.w3.org/2000/svg">
<path id="Vector" opacity="0.4" d="M32.4196 58.6668C47.1472 58.6668 59.0863 46.7278 59.0863 32.0002C59.0863 17.2726 47.1472 5.3335 32.4196 5.3335C17.692 5.3335 5.75293 17.2726 5.75293 32.0002C5.75293 46.7278 17.692 58.6668 32.4196 58.6668Z" fill="white"/>
<path id="Vector_2" d="M40.42 27.2801L32.6866 22.8268C30.7666 21.7068 28.4466 21.7068 26.5266 22.8268C24.6066 23.9468 23.46 25.9202 23.46 28.1602V37.0935C23.46 39.3068 24.6066 41.3068 26.5266 42.4268C27.4866 42.9868 28.5533 43.2535 29.5933 43.2535C30.66 43.2535 31.7 42.9868 32.66 42.4268L40.3933 37.9735C42.3133 36.8535 43.46 34.8801 43.46 32.6401C43.5133 30.4001 42.3666 28.4001 40.42 27.2801Z" fill="white"/>
</svg>
