<svg width="24" height="24" viewBox="0 0 24 24" xmlns="http://www.w3.org/2000/svg">
<path fill-rule="evenodd" clip-rule="evenodd" d="M5.71436 13.0698L7.54365 10.8958C8.24339 10.0645 8.69406 9.52912 8.96848 8.9082C9.21101 8.35945 9.34738 7.76973 9.37039 7.17022C9.39642 6.49186 9.22656 5.81299 8.9628 4.75891L8.78235 4.03686C8.61635 3.37033 8.48657 2.84921 8.19909 2.43416C7.8813 1.97536 7.43143 1.62411 6.90925 1.42708C6.43687 1.24885 5.89983 1.24933 5.21294 1.24995L5.05801 1.25002C4.58702 1.25001 4.1867 1.25 3.85313 1.27888C3.4988 1.30956 3.16802 1.37593 2.84409 1.5367C2.23704 1.83797 1.69795 2.4472 1.4728 3.0864C1.25741 3.6979 1.33197 4.30068 1.42481 5.05118L1.43977 5.1725C1.81498 8.23244 2.73938 10.9965 4.14702 13.3813C5.66356 15.9506 7.73479 18.0689 10.2624 19.6373C12.7265 21.1663 15.6136 22.1661 18.8273 22.5602L18.9486 22.5752C19.6992 22.668 20.3021 22.7426 20.9136 22.5272C21.5528 22.3021 22.162 21.763 22.4633 21.1559C22.6248 20.8304 22.6908 20.496 22.7212 20.1383C22.75 19.8002 22.75 19.3928 22.75 18.9115L22.7501 18.7613C22.7507 18.0899 22.7511 17.5631 22.5729 17.0908C22.3759 16.5686 22.0246 16.1187 21.5658 15.8009C21.1508 15.5134 20.6297 15.3837 19.9631 15.2177L19.0298 14.9844C18.0453 14.7381 17.4111 14.5794 16.7737 14.593C16.2101 14.605 15.6532 14.7172 15.129 14.9244C14.5361 15.1588 14.0128 15.5507 13.2006 16.1591L10.6247 18.0879C8.64357 16.7757 6.98811 15.0845 5.71436 13.0698ZM6.37971 2.83051C6.19768 2.76182 5.96102 2.75002 5.08852 2.75002C4.57881 2.75002 4.24376 2.75067 3.98252 2.77329C3.73485 2.79473 3.60708 2.8326 3.51091 2.88033C3.25373 3.00796 2.98298 3.31394 2.8876 3.58474C2.80285 3.82536 2.81457 4.05978 2.92862 4.98994C3.23168 7.46146 3.91348 9.70501 4.92295 11.6806L6.32144 10.0185C7.1211 9.06811 7.4193 8.70278 7.5965 8.30183C7.76244 7.92638 7.85575 7.52288 7.87149 7.1127C7.8883 6.67466 7.78077 6.2155 7.47953 5.01054L7.35724 4.52138C7.14563 3.67494 7.07679 3.44821 6.966 3.28827C6.82155 3.07972 6.61706 2.92006 6.37971 2.83051ZM12.0174 18.919C14.0654 20.0156 16.4117 20.7527 19.0099 21.0714C19.9402 21.1854 20.1746 21.1972 20.4153 21.1124C20.6861 21.017 20.992 20.7463 21.1197 20.4891C21.1666 20.3945 21.205 20.2653 21.2266 20.011C21.2494 19.7441 21.25 19.4009 21.25 18.8812C21.25 18.0311 21.2384 17.8028 21.1695 17.6203C21.0799 17.3829 20.9203 17.1785 20.7117 17.034C20.5518 16.9232 20.3251 16.8544 19.4786 16.6428L18.7703 16.4657C17.6457 16.1845 17.2174 16.0838 16.8057 16.0926C16.4201 16.1008 16.039 16.1776 15.6804 16.3194C15.2974 16.4708 14.9415 16.7295 14.0136 17.4243L12.0174 18.919Z"/>
<path d="M13.25 7.00002C13.25 6.58581 13.5858 6.25002 14 6.25002C15.0265 6.25002 15.934 6.88893 16.5475 7.5444C16.8911 7.91144 17.1822 8.32426 17.3909 8.73051C17.5921 9.12202 17.75 9.57168 17.75 10C17.75 10.4142 17.4142 10.75 17 10.75C16.5858 10.75 16.25 10.4142 16.25 10C16.25 9.91007 16.2063 9.70711 16.0568 9.41612C15.9148 9.13986 15.7059 8.84028 15.4524 8.56945C14.9562 8.03927 14.4186 7.75002 14 7.75002C13.5858 7.75002 13.25 7.41424 13.25 7.00002Z"/>
<path d="M14 3.25002C13.5858 3.25002 13.25 3.58581 13.25 4.00002C13.25 4.41424 13.5858 4.75002 14 4.75002C16.8995 4.75002 19.25 7.10053 19.25 10C19.25 10.4142 19.5858 10.75 20 10.75C20.4142 10.75 20.75 10.4142 20.75 10C20.75 6.2721 17.7279 3.25002 14 3.25002Z"/>
</svg>
