<svg width="20" height="20" viewBox="0 0 20 20" fill="none" xmlns="http://www.w3.org/2000/svg">
<g id="call-calling">
<g id="Union">
<path fill-rule="evenodd" clip-rule="evenodd" d="M4.76246 10.8915L6.28686 9.07981C6.86998 8.38708 7.24554 7.94093 7.47422 7.4235C7.67633 6.96621 7.78997 6.47478 7.80915 5.97519C7.83084 5.40988 7.68929 4.84416 7.46949 3.96576L7.31911 3.36405C7.18078 2.80861 7.07263 2.37434 6.83306 2.02847C6.56824 1.64613 6.19334 1.35343 5.75819 1.18924C5.36455 1.04071 4.91701 1.04111 4.34461 1.04162L4.2155 1.04169C3.82301 1.04167 3.48941 1.04167 3.21143 1.06573C2.91615 1.0913 2.64051 1.14661 2.37056 1.28058C1.86469 1.53164 1.41544 2.03934 1.22782 2.572C1.04833 3.08158 1.11047 3.5839 1.18783 4.20932L1.2003 4.31041C1.51297 6.86036 2.28331 9.16371 3.45634 11.151C4.72012 13.2921 6.44615 15.0574 8.5525 16.3644C10.6059 17.6386 13.0118 18.4718 15.6899 18.8002L15.791 18.8126C16.4165 18.89 16.9189 18.9522 17.4285 18.7727C17.9611 18.5851 18.4688 18.1358 18.7199 17.6299C18.8545 17.3587 18.9094 17.08 18.9348 16.7819C18.9588 16.5001 18.9588 16.1606 18.9588 15.7596L18.9589 15.6344C18.9594 15.075 18.9598 14.6359 18.8113 14.2423C18.6471 13.8071 18.3544 13.4323 17.972 13.1674C17.6262 12.9279 17.1919 12.8197 16.6364 12.6814L15.8587 12.487C15.0382 12.2817 14.5097 12.1495 13.9786 12.1608C13.5089 12.1708 13.0448 12.2643 12.608 12.437C12.1139 12.6323 11.6779 12.9589 11.001 13.466L8.85439 15.0733C7.20346 13.9797 5.82391 12.5704 4.76246 10.8915ZM5.31691 2.35875C5.16522 2.30152 4.96801 2.29169 4.24092 2.29169C3.81617 2.29169 3.53695 2.29223 3.31925 2.31107C3.11286 2.32894 3.00639 2.3605 2.92625 2.40028C2.71193 2.50664 2.48631 2.76162 2.40682 2.98728C2.33619 3.1878 2.34596 3.38315 2.441 4.15828C2.69355 6.21789 3.26172 8.08751 4.10295 9.73379L5.26836 8.34874C5.93474 7.55676 6.18324 7.25232 6.33091 6.91819C6.46919 6.60531 6.54695 6.26907 6.56007 5.92725C6.57408 5.56221 6.48446 5.17958 6.23343 4.17545L6.13152 3.76782C5.95518 3.06245 5.89781 2.87351 5.80549 2.74022C5.68511 2.56644 5.51471 2.43339 5.31691 2.35875ZM10.015 15.7658C11.7216 16.6796 13.6769 17.294 15.842 17.5595C16.6173 17.6545 16.8127 17.6643 17.0132 17.5937C17.2389 17.5142 17.4939 17.2886 17.6002 17.0743C17.6394 16.9954 17.6713 16.8878 17.6893 16.6758C17.7083 16.4534 17.7088 16.1674 17.7088 15.7343C17.7088 15.026 17.6991 14.8357 17.6417 14.6836C17.5671 14.4858 17.4341 14.3154 17.2603 14.195C17.127 14.1027 16.938 14.0453 16.2327 13.869L15.6424 13.7214C14.7053 13.4871 14.3483 13.4032 14.0052 13.4105C13.6839 13.4174 13.3664 13.4814 13.0675 13.5995C12.7483 13.7256 12.4517 13.9413 11.6785 14.5203L10.015 15.7658Z" fill="white"/>
<path d="M11.0421 5.83335C11.0421 5.48817 11.322 5.20835 11.6671 5.20835C12.5226 5.20835 13.2788 5.74077 13.7901 6.287C14.0764 6.59286 14.319 6.93688 14.4929 7.27542C14.6606 7.60169 14.7921 7.9764 14.7921 8.33335C14.7921 8.67853 14.5123 8.95835 14.1671 8.95835C13.822 8.95835 13.5421 8.67853 13.5421 8.33335C13.5421 8.25839 13.5058 8.08926 13.3812 7.84677C13.2629 7.61655 13.0888 7.3669 12.8775 7.14121C12.464 6.69939 12.0159 6.45835 11.6671 6.45835C11.322 6.45835 11.0421 6.17853 11.0421 5.83335Z" fill="white"/>
<path d="M11.6671 2.70835C11.322 2.70835 11.0421 2.98817 11.0421 3.33335C11.0421 3.67853 11.322 3.95835 11.6671 3.95835C14.0834 3.95835 16.0421 5.91711 16.0421 8.33335C16.0421 8.67853 16.322 8.95835 16.6671 8.95835C17.0123 8.95835 17.2921 8.67853 17.2921 8.33335C17.2921 5.22675 14.7737 2.70835 11.6671 2.70835Z" fill="white"/>
</g>
</g>
</svg>
