<svg id="copy" viewBox="0 0 20 20" xmlns="http://www.w3.org/2000/svg">
    <path fill-rule="evenodd" clip-rule="evenodd" d="M6.04435 13.9579C5.56239 13.9568 5.15945 13.9518 4.81738 13.9304C4.36167 13.9018 3.97234 13.8425 3.606 13.7046C2.53917 13.3031 1.69723 12.4611 1.2957 11.3943C1.15782 11.0279 1.09844 10.6386 1.06992 10.1829C1.04199 9.73665 1.04199 9.18681 1.04199 8.49306L1.04199 6.97246C1.04199 6.06239 1.04199 5.34107 1.08948 4.75974C1.13805 4.16525 1.23939 3.66223 1.47342 3.20291C1.85292 2.45811 2.45847 1.85256 3.20328 1.47306C3.66259 1.23903 4.16561 1.13769 4.7601 1.08912C5.34142 1.04162 6.06262 1.04162 6.97267 1.04163L8.49343 1.04163C9.18718 1.04162 9.73702 1.04162 10.1833 1.06955C10.639 1.09808 11.0283 1.15745 11.3946 1.29533C12.4615 1.69686 13.3034 2.53881 13.705 3.60564C13.8428 3.97197 13.9022 4.3613 13.9307 4.81701C13.9521 5.15909 13.9571 5.56202 13.9583 6.04398C14.4498 6.04805 14.8731 6.05909 15.2405 6.08911C15.835 6.13768 16.3381 6.23902 16.7974 6.47305C17.5422 6.85255 18.1477 7.4581 18.5272 8.20291C18.7613 8.66222 18.8626 9.16524 18.9112 9.75973C18.9587 10.3411 18.9587 11.0623 18.9587 11.9724V13.0275C18.9587 13.9376 18.9587 14.6588 18.9112 15.2402C18.8626 15.8347 18.7613 16.3377 18.5272 16.797C18.1477 17.5418 17.5422 18.1474 16.7974 18.5269C16.3381 18.7609 15.835 18.8622 15.2405 18.9108C14.6592 18.9583 13.938 18.9583 13.0279 18.9583H11.9728C11.0627 18.9583 10.3414 18.9583 9.7601 18.9108C9.16561 18.8622 8.66259 18.7609 8.20328 18.5269C7.45847 18.1474 6.85292 17.5418 6.47342 16.797C6.23939 16.3377 6.13805 15.8347 6.08948 15.2402C6.05946 14.8728 6.04841 14.4495 6.04435 13.9579ZM8.47255 2.29163C9.19181 2.29163 9.70256 2.29191 10.1052 2.31711C10.5028 2.342 10.753 2.38945 10.9543 2.46521C11.6843 2.73994 12.2603 3.31601 12.5351 4.04595C12.6108 4.24726 12.6583 4.49747 12.6832 4.8951C12.7023 5.20047 12.7071 5.56805 12.7083 6.04162H11.9728C11.0627 6.04162 10.3415 6.04161 9.7601 6.08911C9.16561 6.13768 8.66259 6.23902 8.20328 6.47306C7.45847 6.85255 6.85292 7.4581 6.47342 8.20291C6.23939 8.66222 6.13805 9.16524 6.08948 9.75973C6.04198 10.3411 6.04198 11.0623 6.04199 11.9724V12.7079C5.56842 12.7067 5.20084 12.7019 4.89547 12.6828C4.49784 12.6579 4.24763 12.6105 4.04632 12.5347C3.31638 12.26 2.74031 11.6839 2.46558 10.954C2.38981 10.7527 2.34237 10.5024 2.31748 10.1048C2.29228 9.7022 2.29199 9.19144 2.29199 8.47218L2.29199 6.99996C2.29199 6.05623 2.29248 5.38601 2.33533 4.86153C2.37759 4.34434 2.4579 4.02413 2.58718 3.7704C2.84684 3.2608 3.26116 2.84647 3.77077 2.58682C4.0245 2.45754 4.3447 2.37722 4.86189 2.33496C5.38638 2.29211 6.05659 2.29163 7.00033 2.29163L8.47255 2.29163ZM13.0003 7.29162C13.9441 7.29162 14.6143 7.29211 15.1388 7.33496C15.6559 7.37722 15.9762 7.45753 16.2299 7.58681C16.7395 7.84647 17.1538 8.26079 17.4135 8.7704C17.5427 9.02412 17.6231 9.34433 17.6653 9.86152C17.7082 10.386 17.7087 11.0562 17.7087 12V13C17.7087 13.9437 17.7082 14.6139 17.6653 15.1384C17.6231 15.6556 17.5427 15.9758 17.4135 16.2295C17.1538 16.7391 16.7395 17.1534 16.2299 17.4131C15.9762 17.5424 15.6559 17.6227 15.1388 17.6649C14.6143 17.7078 13.9441 17.7083 13.0003 17.7083H12.0003C11.0566 17.7083 10.3864 17.7078 9.86189 17.6649C9.3447 17.6227 9.02449 17.5424 8.77076 17.4131C8.26116 17.1534 7.84684 16.7391 7.58718 16.2295C7.4579 15.9758 7.37758 15.6556 7.33533 15.1384C7.29247 14.6139 7.29199 13.9437 7.29199 13V12C7.29199 11.0562 7.29247 10.386 7.33533 9.86152C7.37758 9.34433 7.4579 9.02413 7.58718 8.7704C7.84684 8.26079 8.26116 7.84647 8.77076 7.58681C9.02449 7.45753 9.3447 7.37722 9.86189 7.33496C10.3864 7.29211 11.0566 7.29162 12.0003 7.29162H13.0003Z"/>
</svg>