<svg id="file-text" width="20" height="20" viewBox="0 0 20 20" xmlns="http://www.w3.org/2000/svg">
<path d="M7.49967 9.37509C7.1545 9.37509 6.87467 9.65491 6.87467 10.0001C6.87467 10.3453 7.1545 10.6251 7.49967 10.6251H12.4997C12.8449 10.6251 13.1247 10.3453 13.1247 10.0001C13.1247 9.65491 12.8449 9.37509 12.4997 9.37509H7.49967Z"/>
<path d="M7.49967 12.7084C7.1545 12.7084 6.87467 12.9882 6.87467 13.3334C6.87467 13.6786 7.1545 13.9584 7.49967 13.9584H10.833C11.1782 13.9584 11.458 13.6786 11.458 13.3334C11.458 12.9882 11.1782 12.7084 10.833 12.7084H7.49967Z"/>
<path fill-rule="evenodd" clip-rule="evenodd" d="M11.811 1.15537C11.2979 1.0416 10.7619 1.04166 9.89123 1.04175L9.78898 1.04176C8.73118 1.04176 7.90184 1.04175 7.2337 1.09236C6.55362 1.14386 5.98984 1.25042 5.47436 1.49083C4.45359 1.9669 3.63315 2.78734 3.15708 3.80811C2.91667 4.32359 2.81011 4.88737 2.7586 5.56745C2.708 6.23559 2.708 7.06493 2.70801 8.12273V11.6947C2.708 12.8378 2.708 13.734 2.76685 14.4543C2.82678 15.1878 2.95082 15.7937 3.23027 16.3421C3.68966 17.2437 4.42269 17.9768 5.3243 18.4362C5.87275 18.7156 6.47867 18.8397 7.21212 18.8996C7.9324 18.9584 8.82858 18.9584 9.97165 18.9584H10.0277C11.1707 18.9584 12.0669 18.9584 12.7872 18.8996C13.5207 18.8397 14.1266 18.7156 14.675 18.4362C15.5767 17.9768 16.3097 17.2437 16.7691 16.3421C17.0485 15.7937 17.1726 15.1878 17.2325 14.4543C17.2913 13.734 17.2913 12.8379 17.2913 11.6948L17.2913 8.51233C17.2915 7.57195 17.2915 6.99294 17.1589 6.44072C17.0416 5.9518 16.848 5.4844 16.5852 5.05568C16.2885 4.57146 15.879 4.16209 15.214 3.49722L14.7861 3.06926C14.1705 2.45352 13.7915 2.07447 13.3482 1.79209C12.8769 1.49184 12.3566 1.27635 11.811 1.15537ZM11.0413 2.31047C10.7587 2.29296 10.3876 2.29176 9.81482 2.29176C8.72562 2.29176 7.94352 2.29218 7.3281 2.33879C6.7192 2.3849 6.3245 2.4736 6.0027 2.62368C5.24822 2.97556 4.64181 3.58197 4.28993 4.33645C4.13984 4.65825 4.05115 5.05295 4.00503 5.66185C3.95843 6.27727 3.95801 7.05937 3.95801 8.14857V11.6668C3.95801 12.8438 3.95849 13.6891 4.0127 14.3525C4.06631 15.0087 4.16933 15.4318 4.34403 15.7746C4.68358 16.441 5.22538 16.9829 5.89179 17.3224C6.23465 17.4971 6.65776 17.6001 7.31391 17.6537C7.97736 17.7079 8.82259 17.7084 9.99967 17.7084C11.1768 17.7084 12.022 17.7079 12.6854 17.6537C13.3416 17.6001 13.7647 17.4971 14.1076 17.3224C14.774 16.9829 15.3158 16.441 15.6553 15.7746C15.83 15.4318 15.933 15.0087 15.9866 14.3525C16.0409 13.6891 16.0413 12.8438 16.0413 11.6668V8.59485C16.0413 7.99046 16.04 7.59403 16.0209 7.29178H14.3076C13.8625 7.29179 13.491 7.2918 13.1874 7.267C12.8709 7.24114 12.5737 7.18521 12.2926 7.04201C11.8614 6.8223 11.5108 6.47172 11.2911 6.04051C11.1479 5.75946 11.092 5.46225 11.0661 5.14567C11.0413 4.84215 11.0413 4.47061 11.0413 4.02548V2.31047ZM15.6998 6.04178C15.6457 5.92781 15.5855 5.81665 15.5194 5.7088C15.3094 5.36606 15.0134 5.06441 14.2718 4.32275L13.9562 4.00718C13.2696 3.32054 12.9904 3.04622 12.6766 2.84635C12.5525 2.7673 12.4238 2.69619 12.2913 2.63336V4.00012C12.2913 4.47714 12.2918 4.79732 12.312 5.04389C12.3315 5.28315 12.3664 5.39756 12.4049 5.47302C12.5047 5.66903 12.6641 5.82838 12.8601 5.92825C12.9356 5.9667 13.05 6.0016 13.2892 6.02115C13.5358 6.0413 13.856 6.04178 14.333 6.04178H15.6998Z"/>
</svg>
