<svg width="24" height="24" viewBox="0 0 24 24" fill="none" xmlns="http://www.w3.org/2000/svg">
<path id="Union" fill-rule="evenodd" clip-rule="evenodd" d="M10.943 1.34995H18.6004C20.1146 1.34995 21.3504 2.58574 21.3504 4.09995V6.29995C21.3504 6.84147 21.1856 7.40003 20.9707 7.87281C20.7549 8.3476 20.4579 8.80308 20.1307 9.13029C20.1198 9.14118 20.1086 9.15174 20.097 9.16195L15.797 12.962C15.7916 12.9668 15.7861 12.9715 15.7805 12.9761C15.5975 13.1287 15.4091 13.3927 15.2658 13.7304C15.124 14.0648 15.0504 14.4153 15.0504 14.7V19C15.0504 19.4491 14.9064 19.9179 14.7033 20.3085C14.5044 20.6909 14.2009 21.0903 13.7975 21.3363L12.406 22.2308L12.3935 22.2387C10.6319 23.3227 8.15039 22.131 8.15039 19.9V14.6C8.15039 14.3781 8.08319 14.0764 7.95403 13.7535C7.83169 13.4476 7.67454 13.1746 7.53274 12.9914L3.76277 9.02297C3.43664 8.69448 3.16722 8.26522 2.97851 7.84425C2.7913 7.42662 2.65039 6.94319 2.65039 6.49995V4.19995C2.65039 2.60991 3.86241 1.34995 5.40039 1.34995H10.9184C10.9266 1.34982 10.9348 1.34982 10.943 1.34995ZM6.83482 10.0788L11.346 2.84995H18.6004C19.2862 2.84995 19.8504 3.41417 19.8504 4.09995V6.29995C19.8504 6.55844 19.7652 6.89988 19.6051 7.2521C19.4504 7.59255 19.2541 7.88037 19.0846 8.05489L14.8112 11.8314C14.3988 12.1783 14.0902 12.6608 13.885 13.1445C13.6768 13.6351 13.5504 14.1846 13.5504 14.7V19C13.5504 19.1508 13.4944 19.382 13.3725 19.6164C13.2482 19.8555 13.1055 20.0022 13.0145 20.0568C13.0079 20.0608 13.0013 20.0649 12.9948 20.0691L11.6017 20.9646C10.7639 21.4745 9.65039 20.8668 9.65039 19.9V14.6C9.65039 14.1219 9.51759 13.6235 9.34675 13.1964C9.17429 12.7653 8.93967 12.3485 8.68604 12.0314C8.67276 12.0148 8.65878 11.9988 8.64414 11.9834L6.83482 10.0788ZM5.7677 8.95556L4.84414 7.98339L4.83072 7.96962C4.66013 7.79903 4.48216 7.53156 4.34727 7.23066C4.20949 6.92329 4.15039 6.65672 4.15039 6.49995V4.19995C4.15039 3.39 4.73837 2.84995 5.40039 2.84995H9.5779L5.7677 8.95556Z"/>
</svg>
