<svg width="977" height="88" viewBox="0 0 977 88" fill="none" xmlns="http://www.w3.org/2000/svg">
<path d="M50.8204 20.0552C13.3545 46.3603 5.61884 50.4503 0.017324 59.7956C0.0173169 63.5152 -0.373476 64.1025 2.55748 67.822C26.6872 51.3298 57.8547 28.0816 70.3601 33.9546C82.8654 39.8276 89.1181 90.4656 116.474 86.8113C135.427 84.2794 130.347 68.0178 170.208 37.2826C181.736 68.8009 202.057 71.7128 214.563 59.2084C218.478 55.293 228.215 47.4965 236.056 39.0445C240.399 62.7352 258.527 70.7585 269.078 62.7321C278.668 55.4375 287.25 45.309 300.537 37.2826C335.318 81.3299 327.893 54.9015 377.328 32.3885C409.959 96.5996 434.579 49.4201 472.682 33.3673C509.612 98.3615 531.301 56.2719 568.817 33.3673C588.943 84.4621 607.114 50.0074 643.263 28.2774C687.813 75.6527 696.02 41.3937 735.294 26.7113C767.144 86.8113 781.408 28.0816 823.614 29.8435C840.222 60.9702 859.846 55.0325 893.761 30.6266C893.761 30.6266 900.662 41.3987 909.784 42.9598C923.461 45.3008 923.461 39.436 947.495 28.0816C956.483 23.8352 962.409 20.306 977 19.0764V5.37272C964.472 7.37515 953.748 6.58748 944.173 12.0288C920.228 25.6375 913.233 20.7 908.611 13.3992C906.905 10.7028 907.382 8.01278 905.876 5.37272C895.715 -12.4417 869.532 19.2721 845.889 24.9493C832.016 -8.33088 794.109 1.65329 759.914 25.9282C759.914 25.9282 750.535 5.55275 739.202 1.65331C719.858 -5.00264 702.077 11.4415 679.216 25.9282C668.85 32.4966 652.642 2.43632 641.504 2.43632C624.7 2.43632 590.506 31.8012 590.506 31.8012C590.506 31.8012 589.972 14.7136 579.173 8.30927C557.484 -4.55349 526.611 34.5419 509.612 41.5894C492.05 48.8701 498.865 19.6409 481.474 8.70081C464.084 -2.23931 418.361 39.0445 406.833 39.8276C399.989 40.2925 396.086 11.4415 382.213 8.30927C359.007 3.06997 323.008 34.5419 323.008 34.5419C323.008 34.5419 314.997 15.1611 300.537 11.4415C283.328 7.01451 258.527 36.4995 258.527 36.4995C258.527 36.4995 261.067 11.4415 244.263 6.54738C234.124 3.59445 193.851 40.8064 193.851 40.8064C193.851 40.8064 186.374 20.1959 173.334 13.2034C157.507 4.71657 124.68 50.2031 110.807 63.7109C102.622 71.6805 88.2863 -6.24984 50.8204 20.0552Z" fill="#1F1D1C"/>
</svg>
