<svg width="24" height="24" viewBox="0 0 24 24" xmlns="http://www.w3.org/2000/svg">
<g id="Frame" clip-path="url(#clip0_358_8990)">
<path d="M24 11.2969L24 12.7033L15.4681 12.7033L15.4681 11.2969L24 11.2969Z"/>
<path d="M9.19197 17.6236C10.085 17.1586 11.1632 16.9223 12.3957 16.9223L15.7222 16.9223C17.7459 16.9223 19.2807 15.7752 19.6178 14.1096L14.0617 14.1096L14.0617 9.89053L19.6164 9.89053C19.2901 8.28775 17.8692 7.07781 16.1713 7.07781L12.4013 7.07781C11.2237 7.07781 10.0789 6.81764 9.09071 6.32494C7.6567 5.60957 6.06329 5.47738 4.48254 5.94241C1.99329 6.67372 5.44713e-06 9.02984 5.31767e-06 11.9916C5.16358e-06 15.5169 2.85538 18.3287 6.32675 18.3287C7.33042 18.3287 8.29425 18.0915 9.19197 17.6236ZM2.81085 12.0001C2.81085 10.0612 4.38832 8.48417 6.32675 8.48417C8.26518 8.48417 9.84265 10.0612 9.84265 12.0001C9.84265 13.939 8.26518 15.516 6.32675 15.516C4.38832 15.516 2.81085 13.939 2.81085 12.0001Z"/>
<path d="M24 9.89053L21.0429 9.89053C20.7011 7.50816 18.6465 5.67145 16.1713 5.67145L13.5831 5.67145L17.5012 2.7406L24 5.93679L24 9.89053ZM13.584 18.3287L15.7222 18.3287C18.5274 18.3287 20.6969 16.5745 21.0443 14.1096L24 14.1096L24 18.0634L17.5012 21.2595L13.584 18.3287Z"/>
</g>
<defs>
<clipPath id="clip0_358_8990">
<rect width="24" height="24" fill="white" transform="translate(24) rotate(90)"/>
</clipPath>
</defs>
</svg>
