<svg id="lock" viewBox="0 0 31 24" xmlns="http://www.w3.org/2000/svg">
	<path fill-rule="evenodd" clip-rule="evenodd" d="M20.0078 1.90086L17.4317 3.80132L20.0218 4.00629C23.3132 4.26659 25.1942 5.34923 26.2814 7.60879C27.0846 9.27845 27.1758 9.33543 29.056 9.33543H31V6.76432V4.19322L26.792 2.09681L22.5844 0L20.0078 1.90086ZM6.85851 3.99645C3.44515 4.64783 0.641872 7.39357 0.0980748 10.6189C-0.582797 14.656 2.36656 19.0783 6.30448 19.9244C8.38311 20.3709 9.73544 20.1815 12.7916 19.0148C13.7896 18.634 15.8338 18.3831 18.0291 18.372C21.8892 18.3527 23.5084 17.8239 24.6328 16.2154C24.9843 15.7132 25.2715 15.1585 25.2715 14.9831C25.2715 14.808 23.7064 14.6646 21.7935 14.6646H18.3155V12V9.33543H21.7935C23.8022 9.33543 25.2715 9.1649 25.2715 8.93205C25.2715 8.70987 24.7347 7.92607 24.0783 7.18983C22.8868 5.85304 22.8782 5.85058 18.043 5.61979C14.8858 5.46934 12.7736 5.16886 11.9732 4.75605C10.3504 3.91979 8.61306 3.66153 6.85851 3.99645ZM11.046 8.89188C12.1934 9.91876 12.3824 10.3586 12.3824 12C12.3824 13.6414 12.1934 14.0812 11.046 15.1081C9.53331 16.4621 7.89578 16.6507 6.03197 15.6853C4.52988 14.9068 3.99427 13.9156 3.99427 11.9131C3.99427 8.07611 8.14701 6.297 11.046 8.89188ZM19.9522 12V13.0248H25.4761H31V12V10.9752H25.4761H19.9522V12ZM26.3526 16.2834C25.3828 18.4864 23.3512 19.6748 20.0574 19.9662L17.4333 20.1987L20.0087 22.0991L22.5844 24L26.792 21.9032L31 19.8068V17.2357V14.6646H29.0327C27.1353 14.6646 27.0404 14.722 26.3526 16.2834Z"/>
</svg>