<svg id="tick-circle" width="112" height="112" viewBox="0 0 112 112" fill="none" xmlns="http://www.w3.org/2000/svg">
<g id="vuesax/bulk/tick-circle">
<g id="tick-circle">
<path id="Vector" opacity="0.4" d="M56.0002 102.667C81.7735 102.667 102.667 81.7733 102.667 56C102.667 30.2267 81.7735 9.33331 56.0002 9.33331C30.2269 9.33331 9.3335 30.2267 9.3335 56C9.3335 81.7733 30.2269 102.667 56.0002 102.667Z" fill="#25BC2B"/>
<path id="Vector_2" d="M49.3732 72.7067C48.4399 72.7067 47.5532 72.3334 46.8999 71.68L33.6932 58.4734C32.3399 57.12 32.3399 54.88 33.6932 53.5267C35.0466 52.1734 37.2866 52.1734 38.6399 53.5267L49.3732 64.26L73.3599 40.2734C74.7132 38.92 76.9532 38.92 78.3066 40.2734C79.6599 41.6267 79.6599 43.8667 78.3066 45.22L51.8466 71.68C51.1932 72.3334 50.3066 72.7067 49.3732 72.7067Z" fill="#25BC2B"/>
</g>
</g>
</svg>
